<svg width="24" height="24" viewBox="0 0 24 24" fill="none" xmlns="http://www.w3.org/2000/svg">
<path fill-rule="evenodd" clip-rule="evenodd" d="M7.18854 10.5002C6.69819 10.5002 6.25313 10.7869 6.05039 11.2334L5.27716 12.9362C5.08966 13.3491 4.80296 13.7092 4.44258 13.9845L3.59842 14.6294C3.5365 14.6767 3.50018 14.7501 3.50018 14.828V18.7502C3.50018 18.8883 3.61211 19.0002 3.75018 19.0002H11.7502C12.1644 19.0002 12.5002 19.336 12.5002 19.7502C12.5002 20.1644 12.1644 20.5002 11.7502 20.5002H3.75018C2.78368 20.5002 2.00018 19.7167 2.00018 18.7502V14.828C2.00018 14.2826 2.25445 13.7684 2.68786 13.4374L3.53202 12.7925C3.69583 12.6674 3.82615 12.5037 3.91137 12.316L4.6846 10.6132C5.13063 9.63092 6.10977 9.00018 7.18854 9.00018H11.7502C12.1644 9.00018 12.5002 9.33597 12.5002 9.75018C12.5002 10.1644 12.1644 10.5002 11.7502 10.5002H7.18854Z" fill="white"/>
<path fill-rule="evenodd" clip-rule="evenodd" d="M16.3118 10.5002C16.8022 10.5002 17.2473 10.7869 17.45 11.2334L18.2232 12.9362C18.4107 13.3491 18.6974 13.7092 19.0578 13.9845L19.902 14.6294C19.9639 14.6767 20.0002 14.7501 20.0002 14.828V18.7502C20.0002 18.8883 19.8883 19.0002 19.7502 19.0002H11.7502C11.336 19.0002 11.0002 19.336 11.0002 19.7502C11.0002 20.1644 11.336 20.5002 11.7502 20.5002H19.7502C20.7167 20.5002 21.5002 19.7167 21.5002 18.7502V14.828C21.5002 14.2826 21.2459 13.7684 20.8125 13.4374L19.9684 12.7925C19.8046 12.6674 19.6742 12.5037 19.589 12.316L18.8158 10.6132C18.3697 9.63092 17.3906 9.00018 16.3118 9.00018H11.7502C11.336 9.00018 11.0002 9.33597 11.0002 9.75018C11.0002 10.1644 11.336 10.5002 11.7502 10.5002H16.3118Z" fill="white"/>
<path fill-rule="evenodd" clip-rule="evenodd" d="M2.00018 14.7502C2.00018 14.336 2.33597 14.0002 2.75018 14.0002H4.75018C5.71668 14.0002 6.50018 14.7837 6.50018 15.7502V16.7502C6.50018 17.1644 6.16439 17.5002 5.75018 17.5002H2.75018C2.33597 17.5002 2.00018 17.1644 2.00018 16.7502V14.7502ZM3.50018 15.5002V16.0002H5.00018V15.7502C5.00018 15.6121 4.88825 15.5002 4.75018 15.5002H3.50018Z" fill="white"/>
<path fill-rule="evenodd" clip-rule="evenodd" d="M8.00018 16.7502C8.00018 17.7167 8.78368 18.5002 9.75018 18.5002H13.7502C14.7167 18.5002 15.5002 17.7167 15.5002 16.7502V15.7502C15.5002 15.336 15.1644 15.0002 14.7502 15.0002H8.75018C8.33597 15.0002 8.00018 15.336 8.00018 15.7502V16.7502ZM9.75018 17.0002C9.61211 17.0002 9.50018 16.8883 9.50018 16.7502V16.5002H14.0002V16.7502C14.0002 16.8883 13.8883 17.0002 13.7502 17.0002H9.75018Z" fill="white"/>
<path fill-rule="evenodd" clip-rule="evenodd" d="M21.5002 14.7502C21.5002 14.336 21.1644 14.0002 20.7502 14.0002H18.7502C17.7837 14.0002 17.0002 14.7837 17.0002 15.7502V16.7502C17.0002 17.1644 17.336 17.5002 17.7502 17.5002H20.7502C21.1644 17.5002 21.5002 17.1644 21.5002 16.7502V14.7502ZM20.0002 15.5002V16.0002H18.5002V15.7502C18.5002 15.6121 18.6121 15.5002 18.7502 15.5002H20.0002Z" fill="white"/>
<path fill-rule="evenodd" clip-rule="evenodd" d="M4.00018 12.7502C4.00018 12.336 4.33597 12.0002 4.75018 12.0002H11.7502C12.1644 12.0002 12.5002 12.336 12.5002 12.7502C12.5002 13.1644 12.1644 13.5002 11.7502 13.5002H4.75018C4.33597 13.5002 4.00018 13.1644 4.00018 12.7502Z" fill="white"/>
<path fill-rule="evenodd" clip-rule="evenodd" d="M19.5002 12.7502C19.5002 12.336 19.1644 12.0002 18.7502 12.0002H11.7502C11.336 12.0002 11.0002 12.336 11.0002 12.7502C11.0002 13.1644 11.336 13.5002 11.7502 13.5002H18.7502C19.1644 13.5002 19.5002 13.1644 19.5002 12.7502Z" fill="white"/>
<path fill-rule="evenodd" clip-rule="evenodd" d="M3.00018 19.7502C3.00018 19.336 3.33597 19.0002 3.75018 19.0002H6.75018C7.16439 19.0002 7.50018 19.336 7.50018 19.7502V21.7502C7.50018 22.7167 6.71668 23.5002 5.75018 23.5002H4.75018C3.78368 23.5002 3.00018 22.7167 3.00018 21.7502V19.7502ZM4.50018 20.5002V21.7502C4.50018 21.8883 4.61211 22.0002 4.75018 22.0002H5.75018C5.88825 22.0002 6.00018 21.8883 6.00018 21.7502V20.5002H4.50018Z" fill="white"/>
<path fill-rule="evenodd" clip-rule="evenodd" d="M20.5002 19.7502C20.5002 19.336 20.1644 19.0002 19.7502 19.0002H16.7502C16.336 19.0002 16.0002 19.336 16.0002 19.7502V21.7502C16.0002 22.7167 16.7837 23.5002 17.7502 23.5002H18.7502C19.7167 23.5002 20.5002 22.7167 20.5002 21.7502V19.7502ZM19.0002 20.5002V21.7502C19.0002 21.8883 18.8883 22.0002 18.7502 22.0002H17.7502C17.6121 22.0002 17.5002 21.8883 17.5002 21.7502V20.5002H19.0002Z" fill="white"/>
<path fill-rule="evenodd" clip-rule="evenodd" d="M21.0856 3.07934C21.4561 3.26458 21.6063 3.71509 21.421 4.08557L20.7544 5.4189C20.6818 5.56405 20.5641 5.68174 20.4189 5.75431L19.0856 6.42098C18.7151 6.60622 18.2646 6.45606 18.0794 6.08557C17.8941 5.71509 18.0443 5.26458 18.4148 5.07934L19.5245 4.52448L20.0794 3.41475C20.2646 3.04427 20.7151 2.8941 21.0856 3.07934Z" fill="white"/>
<path fill-rule="evenodd" clip-rule="evenodd" d="M3.08558 3.07934C3.45606 3.26458 3.60623 3.71509 3.42099 4.08557L2.75432 5.4189C2.68175 5.56405 2.56406 5.68174 2.41891 5.75431L1.08558 6.42098C0.715091 6.60622 0.264586 6.45606 0.079344 6.08557C-0.105898 5.71509 0.04427 5.26458 0.414754 5.07934L1.52448 4.52448L2.07935 3.41475C2.26459 3.04427 2.71509 2.8941 3.08558 3.07934Z" fill="white"/>
<path fill-rule="evenodd" clip-rule="evenodd" d="M12.0856 0.079344C12.4561 0.264586 12.6063 0.715091 12.421 1.08557L11.421 3.08557C11.3484 3.23072 11.2308 3.34841 11.0856 3.42098L9.08558 4.42098C8.71509 4.60622 8.26459 4.45606 8.07935 4.08557C7.8941 3.71509 8.04427 3.26458 8.41476 3.07934L10.1912 2.19114L11.0794 0.414754C11.2646 0.04427 11.7151 -0.105898 12.0856 0.079344Z" fill="white"/>
<path fill-rule="evenodd" clip-rule="evenodd" d="M21.0856 8.42103C21.4561 8.23579 21.6063 7.78528 21.421 7.4148L20.7544 6.08147C20.6818 5.93632 20.5641 5.81863 20.4189 5.74606L19.0856 5.07939C18.7151 4.89415 18.2646 5.04431 18.0794 5.4148C17.8941 5.78528 18.0443 6.23579 18.4148 6.42103L19.5245 6.97589L20.0794 8.08562C20.2646 8.4561 20.7151 8.60627 21.0856 8.42103Z" fill="white"/>
<path fill-rule="evenodd" clip-rule="evenodd" d="M3.08558 8.42103C3.45606 8.23579 3.60623 7.78528 3.42099 7.4148L2.75432 6.08147C2.68175 5.93632 2.56406 5.81863 2.41891 5.74606L1.08558 5.07939C0.715091 4.89415 0.264586 5.04431 0.079344 5.4148C-0.105898 5.78528 0.04427 6.23579 0.414754 6.42103L1.52448 6.97589L2.07935 8.08562C2.26459 8.4561 2.71509 8.60627 3.08558 8.42103Z" fill="white"/>
<path fill-rule="evenodd" clip-rule="evenodd" d="M12.0856 7.42103C12.4561 7.23579 12.6063 6.78528 12.421 6.4148L11.421 4.4148C11.3484 4.26965 11.2308 4.15196 11.0856 4.07939L9.08558 3.07939C8.71509 2.89415 8.26459 3.04431 8.07935 3.4148C7.8941 3.78528 8.04427 4.23579 8.41476 4.42103L10.1912 5.30923L11.0794 7.08562C11.2646 7.4561 11.7151 7.60627 12.0856 7.42103Z" fill="white"/>
<path fill-rule="evenodd" clip-rule="evenodd" d="M20.4148 3.07934C20.0443 3.26458 19.8941 3.71509 20.0794 4.08557L20.746 5.4189C20.8186 5.56405 20.9363 5.68174 21.0815 5.75431L22.4148 6.42098C22.7853 6.60622 23.2358 6.45606 23.421 6.08557C23.6063 5.71509 23.4561 5.26458 23.0856 5.07934L21.9759 4.52448L21.421 3.41475C21.2358 3.04427 20.7853 2.8941 20.4148 3.07934Z" fill="white"/>
<path fill-rule="evenodd" clip-rule="evenodd" d="M2.41475 3.07934C2.04427 3.26458 1.8941 3.71509 2.07934 4.08557L2.74601 5.4189C2.81858 5.56405 2.93627 5.68174 3.08142 5.75431L4.41475 6.42098C4.78524 6.60622 5.23574 6.45606 5.42098 6.08557C5.60623 5.71509 5.45606 5.26458 5.08557 5.07934L3.97585 4.52448L3.42098 3.41475C3.23574 3.04427 2.78524 2.8941 2.41475 3.07934Z" fill="white"/>
<path fill-rule="evenodd" clip-rule="evenodd" d="M11.4148 0.079344C11.0443 0.264586 10.8941 0.715091 11.0794 1.08557L12.0794 3.08557C12.152 3.23072 12.2696 3.34841 12.4148 3.42098L14.4148 4.42098C14.7853 4.60622 15.2358 4.45606 15.421 4.08557C15.6063 3.71509 15.4561 3.26458 15.0856 3.07934L13.3092 2.19114L12.421 0.414754C12.2358 0.04427 11.7853 -0.105898 11.4148 0.079344Z" fill="white"/>
<path fill-rule="evenodd" clip-rule="evenodd" d="M20.4148 8.42103C20.0443 8.23579 19.8941 7.78528 20.0794 7.4148L20.746 6.08147C20.8186 5.93632 20.9363 5.81863 21.0815 5.74606L22.4148 5.07939C22.7853 4.89415 23.2358 5.04431 23.421 5.4148C23.6063 5.78528 23.4561 6.23579 23.0856 6.42103L21.9759 6.97589L21.421 8.08562C21.2358 8.4561 20.7853 8.60627 20.4148 8.42103Z" fill="white"/>
<path fill-rule="evenodd" clip-rule="evenodd" d="M2.41475 8.42103C2.04427 8.23579 1.8941 7.78528 2.07934 7.4148L2.74601 6.08147C2.81858 5.93632 2.93627 5.81863 3.08142 5.74606L4.41475 5.07939C4.78524 4.89415 5.23574 5.04431 5.42098 5.4148C5.60623 5.78528 5.45606 6.23579 5.08557 6.42103L3.97585 6.97589L3.42098 8.08562C3.23574 8.4561 2.78524 8.60627 2.41475 8.42103Z" fill="white"/>
<path fill-rule="evenodd" clip-rule="evenodd" d="M11.4148 7.42103C11.0443 7.23579 10.8941 6.78528 11.0794 6.4148L12.0794 4.4148C12.152 4.26965 12.2696 4.15196 12.4148 4.07939L14.4148 3.07939C14.7853 2.89415 15.2358 3.04431 15.421 3.4148C15.6063 3.78528 15.4561 4.23579 15.0856 4.42103L13.3092 5.30923L12.421 7.08562C12.2358 7.4561 11.7853 7.60627 11.4148 7.42103Z" fill="white"/>
</svg>
