<svg width="29" height="29" viewBox="0 0 29 29" fill="none" xmlns="http://www.w3.org/2000/svg">
<path d="M12.339 7.34062C12.2457 7.34055 12.1526 7.33083 12.0613 7.31162L10.2859 6.9387C10.1112 6.90216 9.94536 6.83157 9.79791 6.73094C9.65046 6.63032 9.52426 6.50164 9.42654 6.35224C9.32882 6.20285 9.26148 6.03567 9.22836 5.86025C9.19525 5.68484 9.19701 5.50461 9.23355 5.32988C9.27008 5.15514 9.34068 4.98931 9.4413 4.84186C9.54193 4.6944 9.67061 4.56821 9.82 4.47049C9.9694 4.37277 10.1366 4.30543 10.312 4.27231C10.4874 4.2392 10.6676 4.24096 10.8424 4.27749L12.6168 4.64815C12.9462 4.71674 13.2385 4.90506 13.4371 5.17668C13.6356 5.44829 13.7264 5.78391 13.6919 6.11859C13.6573 6.45328 13.4999 6.76326 13.25 6.98857C13.0001 7.21388 12.6755 7.33851 12.339 7.33835V7.34062ZM12.2461 6.42485C12.3637 6.44851 12.4859 6.42492 12.5862 6.35921C12.6865 6.29349 12.7569 6.19092 12.7822 6.07368C12.7944 6.01543 12.795 5.95533 12.784 5.89684C12.773 5.83834 12.7506 5.78259 12.718 5.73277C12.6854 5.68295 12.6434 5.64003 12.5942 5.60647C12.545 5.57291 12.4897 5.54937 12.4315 5.53718L10.657 5.16562C10.5988 5.15348 10.5386 5.15296 10.4802 5.16406C10.4217 5.17517 10.3659 5.19769 10.3162 5.23035C10.2664 5.263 10.2235 5.30515 10.19 5.35438C10.1565 5.4036 10.1331 5.45895 10.121 5.51724C10.0965 5.63483 10.1196 5.75735 10.1854 5.85787C10.2512 5.95838 10.3541 6.02868 10.4717 6.05329L12.2461 6.42395V6.42485ZM16.2826 4.61734C15.9491 4.61712 15.6274 4.49436 15.3786 4.2724C15.1297 4.05044 14.9712 3.74477 14.933 3.41351C14.8949 3.08226 14.9798 2.74854 15.1716 2.47582C15.3635 2.2031 15.6489 2.0104 15.9736 1.93439L17.738 1.51932C17.9127 1.47573 18.0943 1.46728 18.2723 1.49446C18.4503 1.52164 18.6211 1.58391 18.7749 1.67765C18.9286 1.77139 19.0622 1.89474 19.1678 2.04054C19.2735 2.18633 19.3491 2.35166 19.3904 2.52693C19.4316 2.7022 19.4376 2.88392 19.408 3.06153C19.3785 3.23914 19.3139 3.4091 19.2181 3.56156C19.1223 3.71401 18.9972 3.84591 18.85 3.9496C18.7028 4.05329 18.5364 4.1267 18.3606 4.16557L16.5961 4.58064C16.4934 4.6049 16.3882 4.61721 16.2826 4.61734ZM18.0498 2.38887C18.014 2.38873 17.9784 2.39299 17.9437 2.40156L16.1793 2.81662C16.092 2.83704 16.0128 2.88286 15.9516 2.94829C15.8904 3.01373 15.85 3.09584 15.8354 3.18424C15.8209 3.27265 15.8329 3.36338 15.8699 3.44498C15.9069 3.52658 15.9672 3.59537 16.0433 3.64267C16.0937 3.67444 16.1499 3.69576 16.2087 3.70533C16.2675 3.71491 16.3276 3.71255 16.3854 3.6984L18.1499 3.28334C18.2583 3.25814 18.3536 3.19395 18.4177 3.10302C18.4817 3.01208 18.5101 2.90075 18.4974 2.79023C18.4847 2.67971 18.4318 2.57773 18.3487 2.50371C18.2657 2.4297 18.1583 2.38882 18.0471 2.38887H18.0498Z" fill="white"/>
<path d="M12.0835 14.2843C12.209 13.9019 12.3119 13.5125 12.3916 13.118C12.5637 11.6657 12.6599 10.2054 12.6798 8.74305C12.6819 8.63704 12.6468 8.53364 12.5806 8.45085C12.5143 8.36806 12.4212 8.31111 12.3173 8.28993L9.65563 7.73394C9.55203 7.71239 9.44416 7.72779 9.35072 7.77744C9.25728 7.8271 9.18416 7.9079 9.14405 8.00582C8.57725 9.35351 8.08116 10.7299 7.6578 12.1293C7.57383 12.5229 7.5133 12.9211 7.47655 13.3219C6.91716 13.4687 6.4097 13.7684 6.011 14.1874C5.61229 14.6063 5.33809 15.128 5.21908 15.694L4.68213 18.2664C4.6576 18.384 4.68076 18.5065 4.74653 18.607C4.81229 18.7075 4.91528 18.7778 5.03285 18.8024L6.80729 19.1726C6.86548 19.1851 6.92559 19.1859 6.98409 19.175C7.0426 19.164 7.09833 19.1415 7.14804 19.1087C7.24858 19.0427 7.31894 18.9396 7.34379 18.8219C7.39918 18.4835 7.56867 18.1743 7.8241 17.9456C7.98699 17.8338 8.17283 17.7599 8.36798 17.7294C8.56314 17.6988 8.76267 17.7123 8.95193 17.7688C9.13669 17.7841 9.31553 17.8414 9.47484 17.9362C9.63415 18.031 9.76973 18.1609 9.87128 18.316C9.97282 18.4711 10.0376 18.6473 10.0608 18.8313C10.084 19.0152 10.0649 19.202 10.005 19.3774C9.98059 19.495 10.0038 19.6174 10.0696 19.7178C10.1353 19.8182 10.2382 19.8884 10.3557 19.913L12.1301 20.2837C12.1884 20.2958 12.2485 20.2964 12.3069 20.2853C12.3654 20.2742 12.4211 20.2517 12.4709 20.2191C12.5207 20.1865 12.5635 20.1444 12.5971 20.0952C12.6306 20.0461 12.6541 19.9908 12.6662 19.9325L13.2031 17.3597C13.3201 16.7937 13.2773 16.2063 13.0796 15.6632C12.8818 15.1201 12.537 14.6427 12.0835 14.2843ZM11.5746 22.9467L9.80018 22.5761C9.74192 22.5639 9.68185 22.5634 9.62338 22.5744C9.56491 22.5855 9.5092 22.608 9.45942 22.6406C9.40965 22.6732 9.36678 22.7153 9.33327 22.7645C9.29976 22.8137 9.27627 22.869 9.26413 22.9272C9.20814 23.2654 9.03856 23.5743 8.78337 23.8031C8.6207 23.9152 8.43493 23.9892 8.23979 24.0198C8.04466 24.0504 7.84514 24.0367 7.65599 23.9798C7.45981 23.9563 7.27143 23.889 7.10477 23.7829C6.9381 23.6768 6.79741 23.5346 6.6931 23.3668C6.55002 23.0545 6.51804 22.7028 6.60248 22.3699C6.61462 22.3116 6.61516 22.2515 6.60409 22.1931C6.59301 22.1346 6.57052 22.0789 6.53791 22.0291C6.5053 21.9793 6.46321 21.9365 6.41403 21.903C6.36486 21.8695 6.30956 21.846 6.2513 21.8338L4.47732 21.4636C4.41903 21.4514 4.35891 21.4508 4.30039 21.4619C4.24187 21.4729 4.1861 21.4954 4.13628 21.528C4.08645 21.5606 4.04354 21.6027 4.01 21.6519C3.97646 21.7012 3.95295 21.7565 3.94082 21.8148L3.20041 25.3646C3.12699 25.7175 3.19672 26.0851 3.39429 26.3866C3.59185 26.688 3.90106 26.8987 4.25393 26.9723L9.57679 28.0838C9.66889 28.103 9.76273 28.1128 9.85682 28.1128C10.1687 28.1122 10.471 28.0043 10.7128 27.8073C10.9546 27.6103 11.1213 27.3361 11.1849 27.0307L11.9258 23.4823C11.9502 23.3647 11.9269 23.2423 11.861 23.1418C11.7952 23.0414 11.6922 22.9712 11.5746 22.9467ZM25.9097 22.4066L25.0796 18.8776C25.0521 18.7609 24.9794 18.6597 24.8775 18.5964C24.7755 18.5332 24.6527 18.5129 24.5358 18.5401L22.7713 18.9551C22.6545 18.9826 22.5534 19.0553 22.4901 19.1572C22.4268 19.2591 22.4066 19.382 22.4338 19.4989C22.4981 19.6727 22.5219 19.859 22.5035 20.0435C22.485 20.2279 22.4247 20.4058 22.3271 20.5634C22.2295 20.7211 22.0973 20.8544 21.9404 20.9532C21.7836 21.052 21.6062 21.1138 21.4219 21.1338C21.2341 21.1956 21.0347 21.2144 20.8386 21.1887C20.6425 21.1631 20.4547 21.0936 20.2891 20.9856C20.0281 20.7632 19.8508 20.4583 19.7866 20.1215C19.759 20.0048 19.6863 19.9037 19.5844 19.8406C19.4825 19.7774 19.3596 19.7571 19.2428 19.7843L17.4788 20.1994C17.362 20.2269 17.2609 20.2996 17.1976 20.4015C17.1343 20.5034 17.1141 20.6263 17.1413 20.7432L17.9714 24.2716C18.0412 24.5698 18.2096 24.8356 18.4493 25.026C18.6891 25.2165 18.9861 25.3205 19.2922 25.3211C19.3978 25.3207 19.503 25.3084 19.6058 25.2844L24.8988 24.0392C25.2491 23.9564 25.5523 23.738 25.7418 23.4319C25.9313 23.1259 25.9917 22.7571 25.9097 22.4066ZM18.9565 16.5939C18.8921 16.4201 18.8683 16.2338 18.8868 16.0494C18.9052 15.8649 18.9656 15.6871 19.0631 15.5295C19.1607 15.3719 19.293 15.2386 19.4498 15.1399C19.6067 15.0411 19.784 14.9794 19.9683 14.9595C20.1421 14.8952 20.3284 14.8714 20.5128 14.89C20.6972 14.9085 20.8749 14.9688 21.0325 15.0664C21.1901 15.1639 21.3234 15.2962 21.4222 15.453C21.521 15.6098 21.5827 15.787 21.6027 15.9713C21.6302 16.0881 21.7029 16.1892 21.8048 16.2525C21.9067 16.3158 22.0296 16.3361 22.1465 16.3089L23.9109 15.8938C24.0277 15.8663 24.1289 15.7937 24.1921 15.6917C24.2554 15.5898 24.2757 15.4669 24.2485 15.3501L23.6463 12.7922C23.5131 12.2294 23.2258 11.7148 22.8167 11.3061C22.4076 10.8973 21.8928 10.6104 21.3299 10.4776C21.2822 10.0775 21.2106 9.68064 21.1156 9.28907C20.6583 7.90035 20.1289 6.53641 19.5297 5.20279C19.4871 5.10591 19.4119 5.02701 19.3172 4.97975C19.2226 4.93249 19.1143 4.91986 19.0113 4.94405L16.3646 5.56664C16.2615 5.59088 16.1701 5.65048 16.1064 5.73508C16.0426 5.81968 16.0106 5.92394 16.0157 6.02974C16.0724 7.49098 16.2055 8.94826 16.4144 10.3956C16.504 10.7881 16.6168 11.175 16.752 11.5542C16.3075 11.924 15.9746 12.4102 15.7906 12.9583C15.6065 13.5065 15.5786 14.095 15.7098 14.6581L16.3116 17.216C16.3391 17.3328 16.4117 17.434 16.5137 17.4972C16.6156 17.5605 16.7385 17.5808 16.8553 17.5536L18.6193 17.1386C18.7363 17.111 18.8374 17.0381 18.9006 16.936C18.9639 16.8339 18.9839 16.7108 18.9565 16.5939Z" fill="#BABABA"/>
<path d="M11.8175 22.2371C11.787 22.2369 11.7567 22.2337 11.7269 22.2276C11.6686 22.2155 11.6133 22.192 11.5641 22.1585C11.515 22.1249 11.4729 22.0821 11.4403 22.0323C11.4076 21.9825 11.3852 21.9268 11.3741 21.8683C11.363 21.8099 11.3635 21.7498 11.3757 21.6915L11.6888 20.1922L10.358 19.9139C10.2405 19.8893 10.1376 19.8191 10.0718 19.7187C10.0061 19.6183 9.98285 19.4959 10.0073 19.3783C10.0672 19.2029 10.0862 19.0161 10.0631 18.8322C10.0399 18.6482 9.97508 18.472 9.87354 18.3169C9.772 18.1618 9.63641 18.0319 9.4771 17.9371C9.31779 17.8423 9.13895 17.785 8.95419 17.7698C8.76496 17.7129 8.56538 17.6993 8.37018 17.7299C8.17498 17.7605 7.98914 17.8345 7.82636 17.9465C7.57111 18.1753 7.40165 18.4845 7.34605 18.8228C7.33386 18.8811 7.31032 18.9364 7.27676 18.9855C7.2432 19.0347 7.20028 19.0768 7.15046 19.1093C7.10064 19.1419 7.04489 19.1643 6.98639 19.1753C6.9279 19.1864 6.86781 19.1857 6.80955 19.1735L5.03285 18.8047C4.97329 18.7939 4.9165 18.7713 4.86582 18.7382C4.81515 18.7051 4.77162 18.6622 4.73781 18.612C4.70399 18.5618 4.68058 18.5053 4.66895 18.4459C4.65732 18.3865 4.65771 18.3254 4.67009 18.2661C4.68247 18.2069 4.7066 18.1507 4.74104 18.1009C4.77549 18.0512 4.81956 18.0088 4.87065 17.9764C4.92173 17.9439 4.97881 17.922 5.0385 17.912C5.09819 17.9019 5.15928 17.904 5.21817 17.9179L6.58208 18.2025C6.71641 17.8249 6.95146 17.4913 7.26177 17.2378C7.52705 17.04 7.83395 16.9054 8.15911 16.8442C8.48427 16.7829 8.81911 16.7967 9.13816 16.8843C9.6716 16.9458 10.1598 17.2134 10.4985 17.6301C10.8372 18.0468 10.9995 18.5794 10.9507 19.1142L12.3159 19.3992C12.4334 19.4238 12.5363 19.494 12.6021 19.5944C12.6678 19.6949 12.691 19.8173 12.6666 19.9348L12.2611 21.8778C12.2396 21.9795 12.1838 22.0707 12.103 22.1361C12.0222 22.2015 11.9214 22.2372 11.8175 22.2371ZM8.08283 24.9337C7.87686 24.9324 7.67156 24.91 7.47021 24.8666C7.14255 24.8196 6.82995 24.6984 6.55621 24.5123C6.28248 24.3262 6.05483 24.0801 5.89061 23.7927C5.7081 23.4361 5.62632 23.0364 5.65408 22.6368L4.29063 22.3518C4.17357 22.3266 4.07122 22.2562 4.00593 22.1558C3.94064 22.0555 3.91772 21.9334 3.94217 21.8162L4.27522 20.2212C4.29974 20.1035 4.36999 20.0004 4.47051 19.9346C4.57104 19.8687 4.69362 19.8455 4.81127 19.87C4.92892 19.8945 5.03202 19.9648 5.09787 20.0653C5.16373 20.1658 5.18696 20.2884 5.16244 20.406L4.92183 21.5574L6.25266 21.8352C6.31091 21.8473 6.36621 21.8708 6.41539 21.9043C6.46456 21.9378 6.50666 21.9807 6.53927 22.0305C6.57188 22.0803 6.59436 22.136 6.60544 22.1944C6.61652 22.2529 6.61597 22.313 6.60383 22.3712C6.5194 22.7041 6.55138 23.0559 6.69446 23.3681C6.79896 23.5357 6.93979 23.6777 7.10653 23.7836C7.27327 23.8895 7.46166 23.9565 7.6578 23.9798C7.83321 24.04 8.02005 24.0593 8.20405 24.0363C8.38806 24.0133 8.56438 23.9485 8.71955 23.847C8.87473 23.7454 9.00466 23.6098 9.09943 23.4504C9.1942 23.291 9.25131 23.1121 9.26639 22.9272C9.27853 22.869 9.30202 22.8137 9.33553 22.7645C9.36904 22.7153 9.41191 22.6732 9.46168 22.6406C9.51146 22.608 9.56717 22.5855 9.62564 22.5744C9.68411 22.5634 9.74418 22.5639 9.80244 22.5761L11.5769 22.9467C11.6366 22.9573 11.6936 22.9797 11.7445 23.0128C11.7954 23.0458 11.8391 23.0887 11.8732 23.1389C11.9072 23.1891 11.9307 23.2457 11.9425 23.3052C11.9542 23.3647 11.9539 23.426 11.9415 23.4854C11.9291 23.5448 11.9049 23.6011 11.8704 23.6509C11.8358 23.7008 11.7916 23.7432 11.7404 23.7757C11.6891 23.8081 11.6319 23.83 11.5721 23.8399C11.5122 23.8498 11.451 23.8476 11.392 23.8335L10.0267 23.5485C9.89458 23.9576 9.63414 24.3132 9.28401 24.5627C8.93388 24.8122 8.51268 24.9423 8.08283 24.9337ZM24.2354 17.7231C24.1334 17.7229 24.0344 17.6884 23.9544 17.625C23.8745 17.5616 23.8183 17.473 23.7949 17.3737L23.4719 15.9976L22.1487 16.3089C22.0319 16.3361 21.909 16.3158 21.8071 16.2525C21.7051 16.1892 21.6325 16.0881 21.605 15.9713C21.585 15.787 21.5233 15.6098 21.4244 15.453C21.3256 15.2962 21.1924 15.1639 21.0348 15.0664C20.8772 14.9688 20.6994 14.9085 20.515 14.89C20.3306 14.8714 20.1444 14.8952 19.9706 14.9595C19.7863 14.9794 19.609 15.0411 19.4522 15.1398C19.2954 15.2386 19.1632 15.3718 19.0656 15.5294C18.9681 15.6869 18.9077 15.8647 18.8892 16.0491C18.8707 16.2334 18.8945 16.4196 18.9587 16.5934C18.9859 16.7102 18.9657 16.8331 18.9025 16.935C18.8393 17.0369 18.7383 17.1096 18.6216 17.1372L16.8571 17.5523C16.7992 17.5659 16.7392 17.568 16.6804 17.5584C16.6217 17.5488 16.5654 17.5278 16.5148 17.4964C16.4642 17.4651 16.4203 17.4241 16.3855 17.3758C16.3508 17.3275 16.3259 17.2728 16.3123 17.2149C16.2986 17.157 16.2965 17.0969 16.3061 17.0382C16.3157 16.9795 16.3368 16.9232 16.3681 16.8726C16.3994 16.822 16.4404 16.7781 16.4887 16.7433C16.537 16.7085 16.5917 16.6836 16.6496 16.67L18.009 16.3528C17.9467 15.8194 18.0955 15.2827 18.4236 14.8575C18.7517 14.4323 19.233 14.1523 19.7648 14.0772C20.2744 13.9076 20.83 13.9438 21.3132 14.1782C21.7964 14.4125 22.169 14.8264 22.3513 15.3315L23.7107 15.012C23.8275 14.9849 23.9504 15.0051 24.0523 15.0684C24.1543 15.1317 24.2269 15.2328 24.2544 15.3496L24.6817 17.1671C24.7089 17.284 24.6886 17.4068 24.6253 17.5088C24.562 17.6107 24.4609 17.6834 24.3441 17.7108C24.3085 17.719 24.272 17.7231 24.2354 17.7231ZM20.9656 22.0985C20.5262 22.1079 20.0959 21.9715 19.7422 21.7106C19.4259 21.4648 19.1828 21.1374 19.0389 20.7636L17.6832 21.0807C17.5661 21.1078 17.4431 21.0877 17.3406 21.025C17.29 20.9936 17.2461 20.9526 17.2113 20.9042C17.1765 20.8559 17.1517 20.8011 17.1381 20.7432L16.7475 19.0829C16.72 18.9659 16.7402 18.8427 16.8035 18.7405C16.8669 18.6383 16.9682 18.5655 17.0853 18.538C17.2023 18.5106 17.3255 18.5307 17.4277 18.5941C17.5299 18.6574 17.6027 18.7588 17.6302 18.8758L17.9165 20.0952L19.2397 19.7834C19.3565 19.7562 19.4793 19.7765 19.5812 19.8396C19.6831 19.9028 19.7558 20.0039 19.7834 20.1206C19.8476 20.4574 20.0249 20.7623 20.2859 20.9847C20.4517 21.0925 20.6395 21.1617 20.8355 21.1874C21.0316 21.213 21.2309 21.1944 21.4188 21.1328C21.6031 21.113 21.7805 21.0513 21.9374 20.9524C22.0943 20.8536 22.2266 20.7203 22.3242 20.5627C22.4217 20.405 22.482 20.2271 22.5005 20.0426C22.5189 19.8581 22.495 19.6718 22.4306 19.498C22.4034 19.3811 22.4237 19.2582 22.487 19.1563C22.5502 19.0544 22.6514 18.9817 22.7682 18.9542L24.5326 18.5392C24.6496 18.5116 24.7728 18.5317 24.8749 18.595C24.9771 18.6583 25.05 18.7595 25.0775 18.8765C25.105 18.9935 25.0849 19.1166 25.0217 19.2188C24.9584 19.321 24.8571 19.3939 24.7402 19.4214L23.3808 19.7386C23.4429 20.2721 23.294 20.8087 22.9659 21.2339C22.6377 21.6591 22.1563 21.9391 21.6245 22.0142C21.4088 22.0675 21.1878 22.0958 20.9656 22.0985Z" fill="white"/>
</svg>
