<svg width="40" height="40" viewBox="0 0 40 40" fill="none" xmlns="http://www.w3.org/2000/svg">
<g clip-path="url(#clip0_11_162)">
<path d="M26.4581 10.2346C29.2693 10.2346 31.419 12.3843 31.419 15.1955V23.4637H34.7263V15.1955C34.7263 11.2268 31.7498 7.75414 27.9464 7.09269C27.285 3.28933 23.8123 0.31279 19.8436 0.31279H1.65363V40H24.8045V36.6927H4.96089V3.62006H19.8436C22.6548 3.62006 24.8045 5.76978 24.8045 8.58096V10.2346H26.4581ZM9.9218 11.8882V15.1955H16.5363V11.8882H9.9218ZM34.7263 31.7318V26.7709H31.419V31.7318H26.4581V35.0391H31.419V40H34.7263V35.0391H39.6872V31.7318H34.7263ZM9.9218 21.81H24.8045V18.5028H9.9218V21.81Z" fill="white"/>
</g>
<defs>
<clipPath id="clip0_11_162">
<rect width="39.6872" height="39.6872" fill="white" transform="translate(0 0.31279)"/>
</clipPath>
</defs>
</svg>
