<svg width="53" height="53" viewBox="0 0 53 53" fill="none" xmlns="http://www.w3.org/2000/svg">
<path d="M36.8981 18.9116H15.1087C14.6998 18.9116 14.3077 18.7491 14.0185 18.46C13.7294 18.1709 13.567 17.7788 13.567 17.3699V6.47516C13.567 6.06627 13.7294 5.67414 14.0185 5.38501C14.3077 5.09589 14.6998 4.93346 15.1087 4.93346H36.8981C37.307 4.93346 37.6991 5.09589 37.9882 5.38501C38.2774 5.67414 38.4398 6.06627 38.4398 6.47516V17.3699C38.4398 17.7788 38.2774 18.1709 37.9882 18.46C37.6991 18.7491 37.307 18.9116 36.8981 18.9116ZM16.6504 15.8282H35.3564V8.01686H16.6504V15.8282Z" fill="white"/>
<path d="M36.8981 46.2511H15.1087C14.6998 46.2511 14.3077 46.0887 14.0185 45.7995C13.7294 45.5104 13.567 45.1183 13.567 44.7094V27.9655C13.567 27.5566 13.7294 27.1644 14.0185 26.8753C14.3077 26.5862 14.6998 26.4238 15.1087 26.4238H36.8981C37.307 26.4238 37.6991 26.5862 37.9882 26.8753C38.2774 27.1644 38.4398 27.5566 38.4398 27.9655V44.7094C38.4398 45.1183 38.2774 45.5104 37.9882 45.7995C37.6991 46.0887 37.307 46.2511 36.8981 46.2511ZM16.6504 43.1677H35.3564V29.5072H16.6504V43.1677Z" fill="white"/>
<path d="M41.8572 38.9537H36.8981C36.4892 38.9537 36.0971 38.7913 35.8079 38.5022C35.5188 38.213 35.3564 37.8209 35.3564 37.412C35.3564 37.0031 35.5188 36.611 35.8079 36.3219C36.0971 36.0327 36.4892 35.8703 36.8981 35.8703H41.8572C42.3717 35.8698 42.865 35.6651 43.2288 35.3013C43.5926 34.9375 43.7972 34.4443 43.7977 33.9298V20.8531C43.7975 20.3384 43.593 19.8449 43.2291 19.4809C42.8653 19.1169 42.3719 18.9121 41.8572 18.9116H10.1495C9.63488 18.9121 9.14147 19.1169 8.77764 19.4809C8.41382 19.8449 8.20932 20.3384 8.20905 20.8531V33.9298C8.20959 34.4443 8.41421 34.9375 8.77801 35.3013C9.1418 35.6651 9.63506 35.8698 10.1495 35.8703H15.1087C15.5176 35.8703 15.9097 36.0327 16.1988 36.3219C16.488 36.611 16.6504 37.0031 16.6504 37.412C16.6504 37.8209 16.488 38.213 16.1988 38.5022C15.9097 38.7913 15.5176 38.9537 15.1087 38.9537H10.1495C8.81762 38.9521 7.54072 38.4223 6.59891 37.4804C5.6571 36.5386 5.12727 35.2617 5.12564 33.9298V20.8531C5.127 19.521 5.65671 18.2438 6.59855 17.3018C7.54039 16.3598 8.81744 15.8298 10.1495 15.8282H41.8572C43.1893 15.8298 44.4664 16.3598 45.4082 17.3018C46.3501 18.2438 46.8798 19.521 46.8811 20.8531V33.9298C46.8795 35.2617 46.3497 36.5386 45.4079 37.4804C44.4661 38.4223 43.1892 38.9521 41.8572 38.9537Z" fill="white"/>
<path d="M13.4642 24.2561C13.4134 24.2563 13.3626 24.2539 13.3121 24.2489C13.2627 24.2438 13.2093 24.2356 13.163 24.2263C13.1168 24.2171 13.0603 24.2037 13.0161 24.1893C12.9719 24.1749 12.9205 24.1575 12.8742 24.1379C12.828 24.1184 12.7828 24.0968 12.7386 24.0732C12.6936 24.0501 12.65 24.0244 12.608 23.9961C12.5669 23.9684 12.5258 23.9386 12.4868 23.9067C12.4477 23.8748 12.4097 23.8399 12.3737 23.8039C12.3377 23.7679 12.3038 23.7299 12.2709 23.6909C12.2391 23.652 12.2092 23.6115 12.1815 23.5696C12.1534 23.5271 12.1277 23.4839 12.1044 23.4401C12.0808 23.3959 12.0592 23.3496 12.0397 23.3034C12.0201 23.2571 12.0037 23.2088 11.9883 23.1615C11.9729 23.1143 11.9615 23.0588 11.9513 23.0146C11.941 22.9704 11.9338 22.9118 11.9287 22.8655C11.9188 22.763 11.9188 22.6597 11.9287 22.5572C11.9338 22.5079 11.942 22.4544 11.9513 22.4082C11.9605 22.3619 11.9739 22.3054 11.9883 22.2612C12.0027 22.217 12.0201 22.1656 12.0397 22.1193C12.0592 22.0731 12.0808 22.0268 12.1044 21.9826C12.128 21.9384 12.1537 21.8953 12.1815 21.8531C12.2092 21.8112 12.2391 21.7707 12.2709 21.7319C12.3028 21.6928 12.3377 21.6548 12.3737 21.6188C12.4097 21.5828 12.4477 21.5489 12.4868 21.516C12.5258 21.4831 12.5669 21.4544 12.608 21.4266C12.65 21.3983 12.6936 21.3726 12.7386 21.3495C12.7831 21.3262 12.8283 21.3046 12.8742 21.2848C12.9205 21.2652 12.9688 21.2488 13.0161 21.2334C13.0633 21.218 13.1189 21.2067 13.163 21.1964C13.2072 21.1861 13.2658 21.1789 13.3121 21.1738C13.4129 21.1645 13.5144 21.1645 13.6153 21.1738C13.6656 21.1789 13.7181 21.1871 13.7653 21.1964C13.8126 21.2056 13.8681 21.219 13.9113 21.2334C13.9545 21.2478 14.0079 21.2652 14.0542 21.2848C14.1004 21.3043 14.1456 21.3259 14.1898 21.3495C14.2347 21.3728 14.2783 21.3986 14.3204 21.4266C14.3615 21.4544 14.4026 21.4842 14.4416 21.516C14.4807 21.5479 14.5187 21.5828 14.5547 21.6188C14.5907 21.6548 14.6236 21.6928 14.6575 21.7319C14.6914 21.7709 14.7191 21.812 14.7469 21.8531C14.7746 21.8943 14.8003 21.9384 14.824 21.9826C14.8476 22.0268 14.8692 22.0731 14.8887 22.1193C14.9083 22.1656 14.9247 22.2139 14.9401 22.2612C14.9555 22.3085 14.9668 22.364 14.9771 22.4082C14.9874 22.4523 14.9946 22.5109 14.9997 22.5572C15.0096 22.6597 15.0096 22.763 14.9997 22.8655C14.9946 22.9149 14.9864 22.9683 14.9771 23.0146C14.9679 23.0608 14.9545 23.1173 14.9401 23.1615C14.9257 23.2057 14.9083 23.2571 14.8887 23.3034C14.8692 23.3496 14.8476 23.3959 14.824 23.4401C14.8003 23.4843 14.7746 23.5274 14.7469 23.5696C14.7191 23.6117 14.6883 23.6518 14.6575 23.6909C14.6266 23.7299 14.5907 23.7679 14.5547 23.8039C14.5187 23.8399 14.4807 23.8738 14.4416 23.9067C14.4026 23.9396 14.3615 23.9684 14.3204 23.9961C14.2783 24.0241 14.2347 24.0499 14.1898 24.0732C14.1453 24.0965 14.1001 24.1181 14.0542 24.1379C14.0079 24.1575 13.9596 24.1739 13.9113 24.1893C13.863 24.2048 13.8147 24.2161 13.7653 24.2263C13.716 24.2366 13.6626 24.2438 13.6153 24.2489C13.5651 24.2539 13.5146 24.2563 13.4642 24.2561Z" fill="white"/>
<path d="M17.9865 24.2561C17.9362 24.2561 17.8838 24.2561 17.8344 24.2489C17.7851 24.2417 17.7316 24.2356 17.6854 24.2263C17.6391 24.2171 17.5826 24.2037 17.5384 24.1893C17.4942 24.1749 17.4428 24.1575 17.3966 24.1379C17.3503 24.1184 17.3041 24.0968 17.2599 24.0732C17.2157 24.0495 17.1725 24.0238 17.1304 23.9961C17.0884 23.9684 17.048 23.9385 17.0091 23.9067C16.97 23.8748 16.932 23.8399 16.896 23.8039C16.8601 23.7679 16.8261 23.7299 16.7933 23.6908C16.7604 23.6518 16.7316 23.6107 16.7038 23.5696C16.6756 23.5274 16.6495 23.4838 16.6257 23.439C16.6031 23.3948 16.5815 23.3496 16.562 23.3034C16.5425 23.2571 16.526 23.2088 16.5106 23.1615C16.4952 23.1142 16.4839 23.0587 16.4736 23.0145C16.4633 22.9704 16.4561 22.9118 16.451 22.8655C16.4411 22.763 16.4411 22.6597 16.451 22.5572C16.4561 22.5078 16.4644 22.4544 16.4736 22.4081C16.4829 22.3619 16.4962 22.3054 16.5106 22.2612C16.525 22.217 16.5425 22.1656 16.562 22.1193C16.5815 22.0731 16.6031 22.0279 16.6257 21.9837C16.6495 21.9389 16.6756 21.8953 16.7038 21.8531C16.7316 21.812 16.7614 21.7709 16.7933 21.7318C16.8251 21.6928 16.8601 21.6548 16.896 21.6188C16.932 21.5828 16.97 21.5489 17.0091 21.516C17.048 21.4842 17.0884 21.4543 17.1304 21.4266C17.1729 21.3985 17.216 21.3728 17.2599 21.3495C17.3041 21.3259 17.3503 21.3043 17.3966 21.2848C17.4428 21.2652 17.4911 21.2488 17.5384 21.2334C17.5857 21.2179 17.6412 21.2066 17.6854 21.1964C17.7296 21.1861 17.7882 21.1789 17.8344 21.1738C17.937 21.1643 18.0402 21.1643 18.1428 21.1738C18.1921 21.1789 18.2455 21.1871 18.2918 21.1964C18.338 21.2056 18.3946 21.219 18.4388 21.2334C18.483 21.2478 18.5344 21.2652 18.5806 21.2848C18.6269 21.3043 18.6721 21.3259 18.7163 21.3495C18.7605 21.3731 18.8047 21.3988 18.8468 21.4266C18.8889 21.4543 18.929 21.4841 18.9681 21.516C19.0071 21.5479 19.0452 21.5828 19.0811 21.6188C19.1171 21.6548 19.15 21.6928 19.1839 21.7318C19.2178 21.7709 19.2456 21.812 19.2733 21.8531C19.3012 21.8953 19.3269 21.9389 19.3504 21.9837C19.3737 22.0282 19.3953 22.0734 19.4152 22.1193C19.4347 22.1656 19.4511 22.2139 19.4666 22.2612C19.482 22.3084 19.4933 22.3639 19.5036 22.4081C19.5138 22.4523 19.521 22.5109 19.5262 22.5572C19.536 22.6597 19.536 22.763 19.5262 22.8655C19.521 22.9149 19.5128 22.9683 19.5036 23.0145C19.4943 23.0608 19.481 23.1173 19.4666 23.1615C19.4522 23.2057 19.4347 23.2571 19.4152 23.3034C19.3956 23.3496 19.3741 23.3948 19.3504 23.439C19.3269 23.4838 19.3012 23.5274 19.2733 23.5696C19.2456 23.6107 19.2148 23.6518 19.1839 23.6908C19.1531 23.7299 19.1171 23.7679 19.0811 23.8039C19.0452 23.8399 19.0071 23.8738 18.9681 23.9067C18.929 23.9396 18.8879 23.9683 18.8468 23.9961C18.8057 24.0238 18.7605 24.0495 18.7163 24.0732C18.6721 24.0968 18.6269 24.1184 18.5806 24.1379C18.5344 24.1575 18.486 24.1739 18.4388 24.1893C18.3915 24.2047 18.336 24.216 18.2918 24.2263C18.2476 24.2366 18.189 24.2438 18.1428 24.2489C18.0965 24.2541 18.0369 24.2561 17.9865 24.2561Z" fill="white"/>
<path d="M32.0674 35.3564H19.9393C19.5305 35.3564 19.1383 35.194 18.8492 34.9048C18.5601 34.6157 18.3976 34.2236 18.3976 33.8147C18.3976 33.4058 18.5601 33.0137 18.8492 32.7245C19.1383 32.4354 19.5305 32.273 19.9393 32.273H32.0674C32.4763 32.273 32.8684 32.4354 33.1576 32.7245C33.4467 33.0137 33.6091 33.4058 33.6091 33.8147C33.6091 34.2236 33.4467 34.6157 33.1576 34.9048C32.8684 35.194 32.4763 35.3564 32.0674 35.3564Z" fill="white"/>
<path d="M32.0674 40.8038H19.9393C19.5305 40.8038 19.1383 40.6413 18.8492 40.3522C18.5601 40.0631 18.3976 39.6709 18.3976 39.2621C18.3976 38.8532 18.5601 38.461 18.8492 38.1719C19.1383 37.8828 19.5305 37.7204 19.9393 37.7204H32.0674C32.4763 37.7204 32.8684 37.8828 33.1576 38.1719C33.4467 38.461 33.6091 38.8532 33.6091 39.2621C33.6091 39.6709 33.4467 40.0631 33.1576 40.3522C32.8684 40.6413 32.4763 40.8038 32.0674 40.8038Z" fill="white"/>
</svg>
