<svg width="50" height="50" viewBox="0 0 50 50" fill="none" xmlns="http://www.w3.org/2000/svg">
<g clip-path="url(#clip0_10_64)">
<path d="M14.5834 47.3958C16.8845 47.3958 18.75 45.5304 18.75 43.2292C18.75 40.928 16.8845 39.0625 14.5834 39.0625C12.2822 39.0625 10.4167 40.928 10.4167 43.2292C10.4167 45.5304 12.2822 47.3958 14.5834 47.3958Z" fill="white"/>
<path d="M43.75 47.3958C46.0512 47.3958 47.9166 45.5304 47.9166 43.2292C47.9166 40.928 46.0512 39.0625 43.75 39.0625C41.4488 39.0625 39.5833 40.928 39.5833 43.2292C39.5833 45.5304 41.4488 47.3958 43.75 47.3958Z" fill="white"/>
<path d="M27.0833 16.1458H16.6666C15.5161 16.1458 14.5833 17.0786 14.5833 18.2292V28.6458C14.5833 29.7964 15.5161 30.7292 16.6666 30.7292H27.0833C28.2339 30.7292 29.1666 29.7964 29.1666 28.6458V18.2292C29.1666 17.0786 28.2339 16.1458 27.0833 16.1458Z" fill="white"/>
<path d="M44.7917 16.1458H34.375C33.2244 16.1458 32.2917 17.0786 32.2917 18.2292V28.6458C32.2917 29.7964 33.2244 30.7292 34.375 30.7292H44.7917C45.9423 30.7292 46.875 29.7964 46.875 28.6458V18.2292C46.875 17.0786 45.9423 16.1458 44.7917 16.1458Z" fill="white"/>
<path d="M37.5 2.60416H25C23.8494 2.60416 22.9167 3.5369 22.9167 4.68749V10.9375C22.9167 12.0881 23.8494 13.0208 25 13.0208H37.5C38.6506 13.0208 39.5834 12.0881 39.5834 10.9375V4.68749C39.5834 3.5369 38.6506 2.60416 37.5 2.60416Z" fill="white"/>
<path d="M47.9167 33.8542H11.4583V8.85416C11.4583 8.82499 11.4417 8.79791 11.4396 8.76874C11.4375 8.73957 11.4583 8.71249 11.4583 8.68124C11.4572 7.89864 11.1459 7.1484 10.5925 6.59502C10.0391 6.04164 9.28885 5.73026 8.50625 5.72916H2.08333C1.5308 5.72916 1.0009 5.94865 0.610194 6.33935C0.219493 6.73005 0 7.25996 0 7.81249C0 8.36502 0.219493 8.89493 0.610194 9.28563C1.0009 9.67633 1.5308 9.89582 2.08333 9.89582H7.29167V33.8542C7.29167 34.9592 7.73065 36.019 8.51205 36.8004C9.29346 37.5818 10.3533 38.0208 11.4583 38.0208H47.9167C48.4692 38.0208 48.9991 37.8013 49.3898 37.4106C49.7805 37.0199 50 36.49 50 35.9375C50 35.385 49.7805 34.8551 49.3898 34.4644C48.9991 34.0737 48.4692 33.8542 47.9167 33.8542Z" fill="white"/>
</g>
<defs>
<clipPath id="clip0_10_64">
<rect width="50" height="50" fill="white"/>
</clipPath>
</defs>
</svg>
