<svg width="448" height="67" viewBox="0 0 448 67" fill="none" xmlns="http://www.w3.org/2000/svg">
<path d="M415.104 2.08085C412.983 2.9172 410.012 3.649 408.598 3.649C404.778 3.649 398.413 9.71252 398.979 12.8488C399.686 17.0306 402.94 17.0306 402.94 12.8488C402.94 8.77163 405.061 6.78531 409.305 6.78531C411.002 6.78531 413.548 6.0535 415.104 5.21716C418.358 3.43992 427.128 3.12629 429.532 4.90353C430.523 5.63533 433.776 6.0535 436.746 5.94896C441.131 5.73987 442.687 6.15805 443.96 7.83074C445.658 10.2352 443.96 13.4761 440.424 14.5215C439.292 14.8352 438.302 16.4033 438.302 18.076C438.302 22.2577 432.786 25.9168 427.128 25.394C424.723 25.2895 422.743 25.6031 422.743 26.1258C422.743 26.7531 425.289 27.2758 428.401 27.4849C434.907 27.9031 440.283 24.7668 441.98 19.7487C442.546 18.076 444.243 15.8806 445.658 14.7306C451.457 10.0262 445.658 1.66268 437.312 2.9172C435.049 3.23083 431.796 2.81266 429.815 2.08085C425.147 0.0945282 420.197 0.199072 415.104 2.08085Z" fill="white"/>
<path d="M436.744 5.88235C438.936 5.77781 440.43 5.82943 441.537 6.1197C442.649 6.41132 443.369 6.94333 444.013 7.79037L444.015 7.7923C444.88 9.01735 444.878 10.4559 444.214 11.7169C443.55 12.9765 442.226 14.0584 440.443 14.5855L440.442 14.5858C439.898 14.7366 439.379 15.1923 438.996 15.8237C438.613 16.454 438.369 17.2523 438.369 18.076C438.369 20.1973 436.971 22.1756 434.873 23.5549C432.775 24.9348 429.967 25.7229 427.123 25.4606C425.925 25.4086 424.834 25.4608 424.044 25.5905C423.649 25.6555 423.333 25.7392 423.117 25.837C423.009 25.8859 422.93 25.9367 422.879 25.9874C422.829 26.0375 422.809 26.0835 422.809 26.1258C422.809 26.18 422.837 26.2408 422.905 26.3083C422.974 26.3759 423.078 26.4449 423.218 26.5135C423.499 26.6507 423.909 26.78 424.42 26.8972C425.44 27.1313 426.851 27.314 428.405 27.4184C434.89 27.8351 440.232 24.7098 441.917 19.7273C442.203 18.8818 442.773 17.9084 443.447 17.0038C444.122 16.0988 444.903 15.2581 445.616 14.6789L445.616 14.6788C447.053 13.5128 447.768 12.1237 447.908 10.7171C448.047 9.30939 447.611 7.87775 446.735 6.62756C444.982 4.12688 441.471 2.35949 437.322 2.98313L437.321 2.98324C435.046 3.29847 431.782 2.87874 429.792 2.14339L429.792 2.14346L429.789 2.1422C425.14 0.163681 420.207 0.266478 415.128 2.14314C414.064 2.5625 412.788 2.95531 411.601 3.24335C410.416 3.53111 409.313 3.71567 408.598 3.71567C407.659 3.71567 406.556 4.08896 405.436 4.70388C404.317 5.31816 403.185 6.17046 402.19 7.12102C401.194 8.0717 400.337 9.1187 399.764 10.1213C399.19 11.1262 398.907 12.0761 399.045 12.837L399.045 12.8377C399.22 13.8755 399.553 14.6484 399.949 15.1603C400.345 15.6725 400.801 15.9185 401.224 15.9185C401.646 15.9185 402.056 15.6747 402.363 15.1666C402.671 14.6575 402.873 13.8866 402.873 12.8488C402.873 10.7993 403.406 9.26285 404.485 8.23975C405.563 7.21729 407.174 6.71864 409.305 6.71864C410.989 6.71864 413.524 5.99062 415.073 5.15851C416.714 4.26215 419.733 3.73925 422.635 3.66077C424.088 3.62148 425.515 3.69345 426.731 3.887C427.945 4.08015 428.957 4.39574 429.572 4.84991C429.81 5.02572 430.19 5.18643 430.678 5.32622C431.165 5.46559 431.754 5.58266 432.406 5.67385C433.71 5.85621 435.262 5.93447 436.744 5.88235ZM436.744 5.88235C436.743 5.88236 436.743 5.88236 436.743 5.88237L436.746 5.94896L436.744 5.88234C436.744 5.88234 436.744 5.88235 436.744 5.88235Z" stroke="#050F19" stroke-opacity="0.72" stroke-width="0.133333"/>
<path d="M406.759 19.3305C403.505 23.6168 402.232 24.5576 399.828 24.0349C396.999 23.3031 391.624 26.0213 391.624 28.1121C391.624 28.7394 390.35 29.8894 388.794 30.6212C382.288 33.5484 387.663 42.2255 399.545 47.5572C404.92 50.0662 404.778 51.7389 398.838 51.7389C393.038 51.7389 389.926 53.9343 390.492 57.4888C390.916 60.5206 391.058 60.6251 400.818 61.2524C406.334 61.566 412.134 62.4024 413.831 63.0296C415.529 63.7614 418.216 64.2841 419.914 64.2841C421.47 64.2841 424.865 65.016 427.269 65.9568C432.927 68.1523 436.746 66.8977 442.546 61.0433C447.214 56.1298 448.204 50.6935 444.526 48.4981C443.395 47.7663 440.566 44.3164 438.444 40.7619C432.503 31.0393 424.44 27.4849 415.953 30.8302C413.124 31.9802 410.295 32.9211 409.729 32.9211C407.749 32.9211 408.598 30.4121 411.427 27.6939C412.983 26.2303 414.256 24.244 414.256 23.1986C414.256 22.1531 414.821 21.5259 415.529 21.8395C416.236 22.1531 417.509 21.735 418.499 20.8986C420.055 19.5396 419.772 18.8078 417.085 16.7169C415.246 15.2533 413.124 14.1033 412.275 14.1033C411.427 14.1033 408.881 16.5078 406.759 19.3305ZM410.012 23.5122C410.012 25.4985 401.242 35.012 399.969 34.3847C399.12 34.0711 399.828 32.3984 401.525 30.5166C403.223 28.6348 405.203 26.1258 406.052 24.7667C407.607 22.4668 410.012 21.6304 410.012 23.5122ZM398.696 28.1121C398.696 28.9485 398.13 29.9939 397.282 30.3075C396.574 30.6212 395.867 29.9939 395.867 28.8439C395.867 27.5894 396.574 26.6485 397.282 26.6485C398.13 26.6485 398.696 27.2758 398.696 28.1121ZM428.542 34.6984C434.2 38.2528 436.888 42.9573 436.888 49.1253C436.888 54.1434 438.727 55.398 440.283 51.4253C441.131 49.3344 441.273 49.2299 442.687 51.0071C443.536 51.948 443.678 53.8298 443.253 54.9798C441.697 58.3252 434.059 64.2841 431.088 64.2841C427.552 64.2841 427.694 63.0296 431.23 61.3569C434.059 60.1024 435.19 56.9661 432.786 56.9661C432.079 56.9661 430.805 57.6979 429.815 58.6388C425.713 62.0887 422.884 62.4024 413.973 60.1024C408.032 58.5343 403.647 58.1161 399.969 58.5343C396.574 58.9524 394.311 58.7433 393.604 57.907C391.906 55.8161 397.423 53.8298 405.344 53.8298C415.812 53.8298 415.104 51.8435 402.94 45.8845C393.462 41.2846 387.663 36.162 389.502 33.9666C391.058 32.0848 393.745 32.9211 397.423 36.371C401.525 40.1346 410.719 44.2118 412.417 42.9573C412.983 42.5391 412.558 41.8073 411.427 41.2846C405.627 38.7755 403.93 37.3119 404.92 35.5347C405.769 33.862 406.334 33.9666 410.719 37.1029C415.812 40.7619 419.065 40.6573 415.953 37.1029C413.973 34.6984 415.67 34.3847 419.914 36.2665C423.45 37.9392 425.713 36.371 422.318 34.5938C421.045 33.862 419.914 32.9211 419.914 32.5029C419.914 30.9348 424.299 32.0848 428.542 34.6984Z" fill="white"/>
<path d="M407.157 19.6328L407.158 19.6309C408.204 18.2394 409.353 16.9541 410.338 16.0215C410.832 15.5544 411.275 15.1844 411.637 14.9348C411.819 14.8099 411.97 14.7217 412.091 14.6664C412.15 14.639 412.197 14.6222 412.231 14.6127C412.262 14.604 412.276 14.6033 412.276 14.6033M407.157 19.6328L412.275 14.6033H412.276M407.157 19.6328C405.536 21.7679 404.36 23.1399 403.258 23.898C402.695 24.2858 402.14 24.5215 401.547 24.6168C400.958 24.7115 400.361 24.6626 399.721 24.5235L399.712 24.5214M407.157 19.6328L399.712 24.5214M412.276 14.6033C412.396 14.6035 412.619 14.6492 412.95 14.7738M412.276 14.6033L412.95 14.7738M399.712 24.5214L399.702 24.519M399.712 24.5214L399.702 24.519M399.702 24.519C399.096 24.3622 398.313 24.3829 397.453 24.5591C396.598 24.734 395.702 25.0548 394.888 25.4622C394.072 25.8706 393.359 26.3556 392.858 26.8471C392.34 27.3545 392.124 27.7936 392.124 28.1121C392.124 28.4214 391.975 28.7141 391.811 28.9505C391.638 29.2003 391.401 29.455 391.125 29.7006C390.574 30.1927 389.825 30.689 389.007 31.0736L389.007 31.0737M399.702 24.519L389.007 31.0737M389.007 31.0737L389 31.0771M389.007 31.0737L389 31.0771M389 31.0771C387.489 31.7568 386.742 32.7279 386.551 33.8375C386.355 34.9771 386.724 36.3756 387.697 37.9211C389.642 41.0097 393.86 44.4583 399.749 47.101L399.749 47.101M389 31.0771L399.749 47.101M399.749 47.101L399.756 47.1041M399.749 47.101L399.756 47.1041M399.756 47.1041C401.113 47.7376 402.152 48.3315 402.846 48.8757C403.192 49.1472 403.473 49.4224 403.663 49.7021C403.852 49.9806 403.98 50.309 403.93 50.6607C403.877 51.0218 403.653 51.2939 403.375 51.4876C403.103 51.6776 402.746 51.8173 402.334 51.9227C401.509 52.1342 400.337 52.2389 398.838 52.2389C395.986 52.2389 393.876 52.7813 392.563 53.6918C391.287 54.5764 390.733 55.8243 390.986 57.4102L390.986 57.4102M399.756 47.1041L390.986 57.4102M390.986 57.4102L390.987 57.4195M390.986 57.4102L390.987 57.4195M390.987 57.4195C391.096 58.2004 391.178 58.685 391.358 59.0421C391.514 59.3514 391.764 59.595 392.327 59.8033C392.918 60.0215 393.809 60.1837 395.198 60.3287C396.579 60.4729 398.406 60.5964 400.848 60.7533C403.62 60.9109 406.461 61.1997 408.826 61.5282C411.171 61.854 413.098 62.2254 414.005 62.5606L414.017 62.5652M390.987 57.4195L414.017 62.5652M414.017 62.5652L414.029 62.5705M414.017 62.5652L414.029 62.5705M414.029 62.5705C415.662 63.2744 418.282 63.7841 419.914 63.7841C420.748 63.7841 422.028 63.9769 423.382 64.2797C424.744 64.5843 426.219 65.0092 427.451 65.491C430.208 66.5609 432.455 66.7683 434.701 66.043C436.971 65.3097 439.306 63.6033 442.187 60.6951C444.475 58.2854 445.823 55.7868 446.172 53.6699C446.518 51.5749 445.892 49.8959 444.27 48.9274L444.262 48.9228M414.029 62.5705L444.262 48.9228M444.262 48.9228L444.255 48.9179M444.262 48.9228L444.255 48.9179M444.255 48.9179C443.919 48.701 443.496 48.3115 443.034 47.8247C442.564 47.3297 442.029 46.7073 441.465 46C440.339 44.5863 439.089 42.8176 438.016 41.0202C435.082 36.2191 431.651 32.9858 427.951 31.353C424.264 29.7252 420.266 29.6683 416.139 31.2945C414.716 31.8726 413.293 32.3987 412.151 32.781C411.58 32.9722 411.076 33.1289 410.674 33.2385C410.298 33.3412 409.949 33.4211 409.729 33.4211C409.137 33.4211 408.602 33.228 408.324 32.73C408.068 32.2695 408.125 31.7018 408.3 31.1705C408.655 30.0894 409.643 28.7145 411.08 27.3334L411.084 27.3298M444.255 48.9179L411.084 27.3298M411.084 27.3298C411.832 26.626 412.512 25.7959 413.002 25.0221C413.247 24.6353 413.439 24.2704 413.569 23.9491C413.701 23.6213 413.756 23.3691 413.756 23.1986C413.756 22.6 413.916 22.0416 414.26 21.6697C414.437 21.479 414.664 21.3371 414.932 21.2826C415.2 21.228 415.474 21.2681 415.731 21.3824C415.922 21.467 416.275 21.4781 416.755 21.3241C417.218 21.1761 417.725 20.8972 418.173 20.5193C418.548 20.1922 418.762 19.9429 418.868 19.7373C418.96 19.5584 418.969 19.4155 418.911 19.2454C418.841 19.0443 418.665 18.7785 418.303 18.4131C417.946 18.0528 417.445 17.631 416.778 17.1115L416.778 17.1115L416.773 17.1081M411.084 27.3298L416.773 17.1081M416.773 17.1081C415.875 16.3932 414.909 15.7563 414.07 15.3006M416.773 17.1081L414.07 15.3006M414.07 15.3006C413.65 15.0727 413.27 14.8941 412.95 14.7738M414.07 15.3006L412.95 14.7738M405.627 24.5019L405.632 24.4941L405.637 24.4866C406.456 23.2768 407.527 22.4026 408.459 22.0963C408.92 21.9449 409.441 21.9043 409.87 22.1625C410.325 22.4363 410.512 22.9419 410.512 23.5122C410.512 23.8982 410.316 24.3627 410.073 24.8128C409.816 25.2888 409.454 25.8408 409.027 26.4307C408.17 27.6123 407.021 28.9836 405.835 30.2677C404.651 31.551 403.419 32.7604 402.396 33.6139C401.886 34.0387 401.412 34.3888 401.012 34.6146C400.813 34.7268 400.612 34.82 400.42 34.871C400.247 34.917 400.006 34.949 399.775 34.8457C399.595 34.7754 399.438 34.6619 399.32 34.5024C399.2 34.3391 399.14 34.1532 399.119 33.9698C399.078 33.6174 399.175 33.2277 399.329 32.8497C399.643 32.0817 400.286 31.1436 401.154 30.1817C402.842 28.3099 404.801 25.8255 405.627 24.5019ZM428.804 34.2726L428.808 34.275C431.692 36.0864 433.842 38.2064 435.27 40.682C436.699 43.1592 437.388 45.9657 437.388 49.1253C437.388 50.3534 437.501 51.3278 437.684 52.0353C437.874 52.7709 438.114 53.1185 438.283 53.2332C438.347 53.2772 438.393 53.2821 438.438 53.274C438.498 53.2636 438.605 53.2207 438.756 53.0809C439.065 52.7948 439.438 52.2118 439.817 51.243L439.817 51.2429L439.819 51.2373C440.029 50.7213 440.208 50.292 440.381 49.9835C440.535 49.7091 440.772 49.358 441.172 49.2759C441.594 49.1893 441.94 49.4468 442.173 49.6607C442.429 49.8964 442.723 50.2492 443.069 50.6843C443.581 51.2585 443.849 52.0712 443.944 52.8551C444.04 53.6493 443.967 54.4894 443.722 55.1529L443.715 55.1721L443.707 55.1906C443.283 56.1009 442.47 57.1475 441.476 58.19C440.474 59.2401 439.261 60.3154 438.006 61.2825C436.752 62.2491 435.446 63.1156 434.257 63.743C433.088 64.3594 431.961 64.7841 431.088 64.7841C430.187 64.7841 429.468 64.7057 428.962 64.5361C428.71 64.4513 428.47 64.331 428.292 64.1514C428.099 63.9575 427.988 63.703 428.008 63.4141C428.026 63.1482 428.151 62.9116 428.302 62.7143C428.455 62.5132 428.665 62.3168 428.912 62.1248C429.408 61.7405 430.116 61.3305 431.016 60.9049L431.016 60.9048L431.027 60.8999C432.339 60.3181 433.217 59.3133 433.5 58.5229C433.642 58.1236 433.606 57.8658 433.526 57.7327C433.46 57.6232 433.284 57.4661 432.786 57.4661C432.567 57.4661 432.167 57.5937 431.653 57.8846C431.16 58.1642 430.627 58.5577 430.16 59.0013L430.149 59.0117L430.137 59.0215C428.041 60.784 426.216 61.7894 423.745 62.0246C421.315 62.2559 418.303 61.7364 413.848 60.5866L413.845 60.5859C407.94 59.0272 403.622 58.6225 400.028 59.0308C398.313 59.2419 396.859 59.2982 395.73 59.1887C395.166 59.134 394.667 59.0364 394.251 58.8873C393.838 58.7394 393.475 58.5295 393.222 58.2299L393.222 58.2299L393.216 58.2221C392.949 57.8938 392.79 57.5234 392.796 57.1239C392.802 56.7258 392.971 56.3699 393.225 56.0668C393.716 55.4802 394.601 54.9993 395.701 54.6126C397.931 53.8292 401.352 53.3298 405.344 53.3298C407.959 53.3298 409.828 53.2046 410.983 52.939C411.57 52.8042 411.903 52.6478 412.064 52.5088C412.136 52.4462 412.157 52.4018 412.163 52.3792C412.17 52.3584 412.176 52.3183 412.152 52.2413C412.096 52.0628 411.906 51.7804 411.471 51.3883C411.049 51.0076 410.447 50.5669 409.651 50.062C408.062 49.0531 405.757 47.8215 402.72 46.3339C397.959 44.023 394.097 41.5692 391.646 39.3981C390.425 38.3166 389.521 37.2769 389.046 36.3328C388.57 35.386 388.476 34.414 389.118 33.6465C389.566 33.1044 390.114 32.7392 390.757 32.5782C391.395 32.4185 392.087 32.4694 392.813 32.6912C394.249 33.13 395.908 34.2644 397.763 36.0044C399.76 37.8355 403.029 39.7684 406.023 41.0884C407.518 41.7475 408.923 42.2441 410.046 42.4991C410.608 42.6269 411.082 42.6899 411.452 42.6888C411.837 42.6877 412.036 42.617 412.12 42.5552C412.149 42.5333 412.162 42.5182 412.166 42.5108C412.165 42.5007 412.16 42.4697 412.127 42.4137C412.025 42.2399 411.743 41.9825 411.222 41.741C408.331 40.4897 406.389 39.4705 405.297 38.5107C404.746 38.026 404.365 37.5171 404.219 36.9555C404.07 36.3795 404.188 35.8256 404.478 35.3001C404.689 34.8849 404.928 34.4817 405.272 34.2296C405.665 33.9421 406.118 33.8996 406.621 34.0318C407.095 34.1566 407.657 34.4461 408.347 34.8749C409.045 35.3089 409.914 35.9118 411.01 36.6962L411.011 36.6968C412.264 37.5973 413.395 38.2593 414.333 38.6924C415.287 39.133 415.99 39.3131 416.407 39.308C416.58 39.3058 416.65 39.2722 416.668 39.2613C416.671 39.2489 416.673 39.2229 416.668 39.1752C416.653 39.0476 416.582 38.8358 416.4 38.5282C416.222 38.2268 415.953 37.8616 415.577 37.4322L415.572 37.4265L415.567 37.4207C415.066 36.8125 414.721 36.2522 414.646 35.7706C414.605 35.5107 414.636 35.2257 414.818 34.9846C414.994 34.7505 415.253 34.6376 415.5 34.5873C415.975 34.4907 416.62 34.5818 417.358 34.7828C418.115 34.9893 419.042 35.333 420.116 35.8094L420.116 35.8093L420.128 35.8145C420.968 36.212 421.716 36.4086 422.305 36.4628C422.915 36.5191 423.281 36.4166 423.43 36.3132C423.462 36.2908 423.478 36.2731 423.484 36.2639C423.49 36.2558 423.491 36.2519 423.491 36.2497C423.491 36.2484 423.501 36.1996 423.437 36.0865C423.299 35.8424 422.908 35.4669 422.086 35.0368L422.078 35.0322L422.069 35.0273C421.411 34.649 420.783 34.2134 420.313 33.8104C420.079 33.6099 419.872 33.407 419.719 33.2143C419.642 33.1179 419.571 33.014 419.517 32.9056C419.465 32.8016 419.414 32.662 419.414 32.5029C419.414 32.1763 419.535 31.882 419.779 31.6655C420.006 31.4642 420.3 31.3663 420.591 31.3224C421.169 31.2355 421.928 31.334 422.761 31.5482C424.448 31.9819 426.651 32.9466 428.804 34.2726ZM412.169 42.5058C412.168 42.5057 412.168 42.5068 412.167 42.5092C412.168 42.507 412.169 42.5059 412.169 42.5058ZM416.664 39.271C416.664 39.2713 416.666 39.2694 416.667 39.2642C416.664 39.268 416.663 39.2706 416.664 39.271ZM399.196 28.1121C399.196 28.6342 399.023 29.1938 398.734 29.6665C398.448 30.1348 398.02 30.5631 397.469 30.7711C396.922 31.0069 396.358 30.8745 395.958 30.4807C395.572 30.1007 395.367 29.513 395.367 28.8439C395.367 28.126 395.569 27.4777 395.895 26.9956C396.213 26.5261 396.701 26.1485 397.282 26.1485C397.835 26.1485 398.323 26.3559 398.67 26.7229C399.015 27.0871 399.196 27.5805 399.196 28.1121Z" stroke="#050F19" stroke-opacity="0.72"/>
<mask id="path-5-outside-1_112_2" maskUnits="userSpaceOnUse" x="-1" y="16" width="369" height="38" fill="black">
<rect fill="white" x="-1" y="16" width="369" height="38"/>
<path d="M15.216 43.696L25.152 18.352H26.544L35.232 43.888C35.904 45.904 36.352 47.36 36.576 48.256C36.832 47.2 37.28 45.76 37.92 43.936L46.752 17.68H49.152L37.2 52.288H35.856L26.976 26.848C26.848 26.432 26.704 26.016 26.544 25.6C26.416 25.184 26.304 24.816 26.208 24.496C26.112 24.176 26.016 23.904 25.92 23.68L25.728 23.104C25.696 22.944 25.68 22.848 25.68 22.816C25.296 23.968 24.8 25.296 24.192 26.8L14.16 52.288H12.816L0.768 17.68H3.312L12.096 43.504C12.512 44.656 12.848 45.696 13.104 46.624C13.392 47.552 13.552 48.064 13.584 48.16C13.744 47.424 14.288 45.936 15.216 43.696ZM54.7219 52V20.848H56.9299V52H54.7219ZM67.4963 52V20.656H68.5523L89.0003 44.176C89.7363 45.008 90.4083 45.84 91.0163 46.672C91.6563 47.472 91.9923 47.888 92.0243 47.92C91.9603 47.152 91.9283 45.648 91.9283 43.408V20.848H94.1363V52.192H93.0803L72.2483 28.288L69.6083 25.072C69.6723 25.712 69.7043 27.216 69.7043 29.584V52H67.4963ZM104.693 52V20.656H105.749L126.197 44.176C126.933 45.008 127.605 45.84 128.213 46.672C128.853 47.472 129.189 47.888 129.221 47.92C129.157 47.152 129.125 45.648 129.125 43.408V20.848H131.333V52.192H130.277L109.445 28.288L106.805 25.072C106.869 25.712 106.901 27.216 106.901 29.584V52H104.693ZM141.889 52V20.848H144.097V52H141.889ZM154.663 52V20.656H155.719L176.167 44.176C176.903 45.008 177.575 45.84 178.183 46.672C178.823 47.472 179.159 47.888 179.191 47.92C179.127 47.152 179.095 45.648 179.095 43.408V20.848H181.303V52.192H180.247L159.415 28.288L156.775 25.072C156.839 25.712 156.871 27.216 156.871 29.584V52H154.663ZM204.867 22.336C201.315 22.336 198.323 23.696 195.891 26.416C193.491 29.104 192.291 32.416 192.291 36.352C192.291 40.288 193.651 43.632 196.371 46.384C199.091 49.104 202.291 50.464 205.971 50.464C209.683 50.464 212.563 50.032 214.611 49.168V36.352H216.819V50.176C214.323 51.712 210.787 52.48 206.211 52.48C201.635 52.48 197.779 50.928 194.643 47.824C191.507 44.72 189.939 40.912 189.939 36.4C189.939 31.856 191.347 28.048 194.163 24.976C197.011 21.904 200.675 20.368 205.155 20.368C208.771 20.368 212.307 20.928 215.763 22.048L215.187 23.872C211.859 22.848 208.419 22.336 204.867 22.336ZM249.586 19.696H237.97V17.68H263.506V19.696H251.89V52H249.586V19.696ZM273.15 52V20.848H287.694V22.768H275.358V34.096H286.494V35.968H275.358V49.984H288.174V52H273.15ZM302.865 41.2L298.401 52H296.145L309.201 20.656H310.497L323.649 52H321.201L316.689 41.2H302.865ZM309.729 24.208C309.249 25.648 308.817 26.848 308.433 27.808L303.633 39.328H315.921L311.169 27.856C310.433 26.064 309.953 24.848 309.729 24.208ZM348.738 50.368H347.442L338.37 28.336C337.986 27.472 337.602 26.464 337.218 25.312C337.218 25.344 337.186 25.52 337.122 25.84C337.09 26.16 337.042 26.592 336.978 27.136C336.914 27.648 336.85 28.08 336.786 28.432L333.186 52H331.026L336.114 20.656H337.41L347.106 43.648C347.874 45.568 348.258 46.576 348.258 46.672C348.482 46 348.914 45.008 349.554 43.696L360.354 20.656H361.65L366.402 52H364.098L360.69 28.336C360.466 26.768 360.354 25.728 360.354 25.216L358.962 28.384L348.738 50.368Z"/>
</mask>
<path d="M15.216 43.696L25.152 18.352H26.544L35.232 43.888C35.904 45.904 36.352 47.36 36.576 48.256C36.832 47.2 37.28 45.76 37.92 43.936L46.752 17.68H49.152L37.2 52.288H35.856L26.976 26.848C26.848 26.432 26.704 26.016 26.544 25.6C26.416 25.184 26.304 24.816 26.208 24.496C26.112 24.176 26.016 23.904 25.92 23.68L25.728 23.104C25.696 22.944 25.68 22.848 25.68 22.816C25.296 23.968 24.8 25.296 24.192 26.8L14.16 52.288H12.816L0.768 17.68H3.312L12.096 43.504C12.512 44.656 12.848 45.696 13.104 46.624C13.392 47.552 13.552 48.064 13.584 48.16C13.744 47.424 14.288 45.936 15.216 43.696ZM54.7219 52V20.848H56.9299V52H54.7219ZM67.4963 52V20.656H68.5523L89.0003 44.176C89.7363 45.008 90.4083 45.84 91.0163 46.672C91.6563 47.472 91.9923 47.888 92.0243 47.92C91.9603 47.152 91.9283 45.648 91.9283 43.408V20.848H94.1363V52.192H93.0803L72.2483 28.288L69.6083 25.072C69.6723 25.712 69.7043 27.216 69.7043 29.584V52H67.4963ZM104.693 52V20.656H105.749L126.197 44.176C126.933 45.008 127.605 45.84 128.213 46.672C128.853 47.472 129.189 47.888 129.221 47.92C129.157 47.152 129.125 45.648 129.125 43.408V20.848H131.333V52.192H130.277L109.445 28.288L106.805 25.072C106.869 25.712 106.901 27.216 106.901 29.584V52H104.693ZM141.889 52V20.848H144.097V52H141.889ZM154.663 52V20.656H155.719L176.167 44.176C176.903 45.008 177.575 45.84 178.183 46.672C178.823 47.472 179.159 47.888 179.191 47.92C179.127 47.152 179.095 45.648 179.095 43.408V20.848H181.303V52.192H180.247L159.415 28.288L156.775 25.072C156.839 25.712 156.871 27.216 156.871 29.584V52H154.663ZM204.867 22.336C201.315 22.336 198.323 23.696 195.891 26.416C193.491 29.104 192.291 32.416 192.291 36.352C192.291 40.288 193.651 43.632 196.371 46.384C199.091 49.104 202.291 50.464 205.971 50.464C209.683 50.464 212.563 50.032 214.611 49.168V36.352H216.819V50.176C214.323 51.712 210.787 52.48 206.211 52.48C201.635 52.48 197.779 50.928 194.643 47.824C191.507 44.72 189.939 40.912 189.939 36.4C189.939 31.856 191.347 28.048 194.163 24.976C197.011 21.904 200.675 20.368 205.155 20.368C208.771 20.368 212.307 20.928 215.763 22.048L215.187 23.872C211.859 22.848 208.419 22.336 204.867 22.336ZM249.586 19.696H237.97V17.68H263.506V19.696H251.89V52H249.586V19.696ZM273.15 52V20.848H287.694V22.768H275.358V34.096H286.494V35.968H275.358V49.984H288.174V52H273.15ZM302.865 41.2L298.401 52H296.145L309.201 20.656H310.497L323.649 52H321.201L316.689 41.2H302.865ZM309.729 24.208C309.249 25.648 308.817 26.848 308.433 27.808L303.633 39.328H315.921L311.169 27.856C310.433 26.064 309.953 24.848 309.729 24.208ZM348.738 50.368H347.442L338.37 28.336C337.986 27.472 337.602 26.464 337.218 25.312C337.218 25.344 337.186 25.52 337.122 25.84C337.09 26.16 337.042 26.592 336.978 27.136C336.914 27.648 336.85 28.08 336.786 28.432L333.186 52H331.026L336.114 20.656H337.41L347.106 43.648C347.874 45.568 348.258 46.576 348.258 46.672C348.482 46 348.914 45.008 349.554 43.696L360.354 20.656H361.65L366.402 52H364.098L360.69 28.336C360.466 26.768 360.354 25.728 360.354 25.216L358.962 28.384L348.738 50.368Z" fill="white"/>
<path d="M15.216 43.696L16.1399 44.0787L16.1435 44.0699L16.147 44.061L15.216 43.696ZM25.152 18.352V17.352H24.4699L24.221 17.987L25.152 18.352ZM26.544 18.352L27.4907 18.0299L27.2601 17.352H26.544V18.352ZM35.232 43.888L36.1807 43.5718L36.1787 43.5659L35.232 43.888ZM36.576 48.256L35.6059 48.4985L37.5479 48.4916L36.576 48.256ZM37.92 43.936L38.8637 44.2671L38.8678 44.2548L37.92 43.936ZM46.752 17.68V16.68H46.0333L45.8042 17.3612L46.752 17.68ZM49.152 17.68L50.0972 18.0064L50.5553 16.68H49.152V17.68ZM37.2 52.288V53.288H37.9126L38.1452 52.6144L37.2 52.288ZM35.856 52.288L34.9119 52.6176L35.1459 53.288H35.856V52.288ZM26.976 26.848L26.0202 27.1421L26.0257 27.1599L26.0319 27.1776L26.976 26.848ZM26.544 25.6L25.5882 25.8941L25.5983 25.9269L25.6107 25.959L26.544 25.6ZM26.208 24.496L25.2502 24.7833L25.2502 24.7833L26.208 24.496ZM25.92 23.68L24.9713 23.9962L24.9845 24.0357L25.0009 24.0739L25.92 23.68ZM25.728 23.104L24.7474 23.3001L24.7596 23.3612L24.7793 23.4202L25.728 23.104ZM25.68 22.816H26.68L24.7313 22.4998L25.68 22.816ZM24.192 26.8L23.2649 26.4252L23.2615 26.4337L24.192 26.8ZM14.16 52.288V53.288H14.8411L15.0905 52.6542L14.16 52.288ZM12.816 52.288L11.8716 52.6168L12.1053 53.288H12.816V52.288ZM0.768 17.68V16.68H-0.638992L-0.176408 18.0088L0.768 17.68ZM3.312 17.68L4.25873 17.358L4.02812 16.68H3.312V17.68ZM12.096 43.504L11.1493 43.826L11.1523 43.8349L11.1554 43.8436L12.096 43.504ZM13.104 46.624L12.14 46.8899L12.1442 46.9052L12.1489 46.9204L13.104 46.624ZM13.584 48.16L12.6353 48.4762L13.7873 51.9322L14.5612 48.3724L13.584 48.16ZM16.147 44.061L26.083 18.717L24.221 17.987L14.285 43.331L16.147 44.061ZM25.152 19.352H26.544V17.352H25.152V19.352ZM25.5973 18.6741L34.2853 44.2101L36.1787 43.5659L27.4907 18.0299L25.5973 18.6741ZM34.2833 44.2042C34.9549 46.2189 35.392 47.6431 35.6059 48.4985L37.5461 48.0135C37.312 47.0769 36.8531 45.5891 36.1807 43.5718L34.2833 44.2042ZM37.5479 48.4916C37.7922 47.4835 38.2276 46.0798 38.8636 44.2671L36.9764 43.6049C36.3324 45.4402 35.8718 46.9165 35.6042 48.0204L37.5479 48.4916ZM38.8678 44.2548L47.6998 17.9988L45.8042 17.3612L36.9722 43.6172L38.8678 44.2548ZM46.752 18.68H49.152V16.68H46.752V18.68ZM48.2068 17.3536L36.2548 51.9616L38.1452 52.6144L50.0972 18.0064L48.2068 17.3536ZM37.2 51.288H35.856V53.288H37.2V51.288ZM36.8001 51.9584L27.9201 26.5184L26.0319 27.1776L34.9119 52.6176L36.8001 51.9584ZM27.9318 26.5539C27.7969 26.1155 27.6454 25.6779 27.4773 25.241L25.6107 25.959C25.7626 26.3541 25.8991 26.7485 26.0202 27.1421L27.9318 26.5539ZM27.4998 25.3059C27.3723 24.8915 27.261 24.5258 27.1658 24.2086L25.2502 24.7833C25.347 25.1061 25.4597 25.4765 25.5882 25.8941L27.4998 25.3059ZM27.1658 24.2087C27.0626 23.8647 26.9544 23.5549 26.8391 23.2861L25.0009 24.0739C25.0777 24.2531 25.1614 24.4873 25.2502 24.7833L27.1658 24.2087ZM26.8687 23.3638L26.6767 22.7878L24.7793 23.4202L24.9713 23.9962L26.8687 23.3638ZM26.7086 22.9079C26.6935 22.8324 26.6838 22.7803 26.6784 22.7476C26.6756 22.731 26.675 22.7256 26.6753 22.728C26.6755 22.7294 26.6763 22.7366 26.6773 22.748C26.6781 22.7573 26.68 22.7822 26.68 22.816H24.68C24.68 22.9289 24.7001 23.0431 24.7056 23.0764C24.7162 23.1397 24.7305 23.2156 24.7474 23.3001L26.7086 22.9079ZM24.7313 22.4998C24.3557 23.6268 23.8675 24.9345 23.2649 26.4252L25.1191 27.1748C25.7325 25.6574 26.2363 24.3092 26.6287 23.1322L24.7313 22.4998ZM23.2615 26.4337L13.2295 51.9218L15.0905 52.6542L25.1225 27.1662L23.2615 26.4337ZM14.16 51.288H12.816V53.288H14.16V51.288ZM13.7604 51.9592L1.71241 17.3512L-0.176408 18.0088L11.8716 52.6168L13.7604 51.9592ZM0.768 18.68H3.312V16.68H0.768V18.68ZM2.36527 18.002L11.1493 43.826L13.0427 43.182L4.25873 17.358L2.36527 18.002ZM11.1554 43.8436C11.5649 44.9776 11.8924 45.9924 12.14 46.8899L14.068 46.3581C13.8036 45.3996 13.4591 44.3344 13.0366 43.1644L11.1554 43.8436ZM12.1489 46.9204C12.4343 47.8399 12.599 48.3673 12.6353 48.4762L14.5327 47.8438C14.505 47.7607 14.3497 47.2641 14.0591 46.3276L12.1489 46.9204ZM14.5612 48.3724C14.6986 47.7401 15.2042 46.3372 16.1399 44.0787L14.2921 43.3133C13.3718 45.5348 12.7894 47.1079 12.6068 47.9476L14.5612 48.3724ZM54.7219 52H53.7219V53H54.7219V52ZM54.7219 20.848V19.848H53.7219V20.848H54.7219ZM56.9299 20.848H57.9299V19.848H56.9299V20.848ZM56.9299 52V53H57.9299V52H56.9299ZM55.7219 52V20.848H53.7219V52H55.7219ZM54.7219 21.848H56.9299V19.848H54.7219V21.848ZM55.9299 20.848V52H57.9299V20.848H55.9299ZM56.9299 51H54.7219V53H56.9299V51ZM67.4963 52H66.4963V53H67.4963V52ZM67.4963 20.656V19.656H66.4963V20.656H67.4963ZM68.5523 20.656L69.3069 19.9999L69.0079 19.656H68.5523V20.656ZM89.0003 44.176L88.2456 44.8321L88.2513 44.8386L89.0003 44.176ZM91.0163 46.672L90.2089 47.262L90.2217 47.2796L90.2354 47.2967L91.0163 46.672ZM92.0243 47.92L91.3171 48.6271L93.2475 50.5575L93.0208 47.837L92.0243 47.92ZM91.9283 20.848V19.848H90.9283V20.848H91.9283ZM94.1363 20.848H95.1363V19.848H94.1363V20.848ZM94.1363 52.192V53.192H95.1363V52.192H94.1363ZM93.0803 52.192L92.3264 52.849L92.6253 53.192H93.0803V52.192ZM72.2483 28.288L71.4753 28.9225L71.4847 28.9339L71.4944 28.945L72.2483 28.288ZM69.6083 25.072L70.3812 24.4375L68.2844 21.8832L68.6132 25.1715L69.6083 25.072ZM69.7043 52V53H70.7043V52H69.7043ZM68.4963 52V20.656H66.4963V52H68.4963ZM67.4963 21.656H68.5523V19.656H67.4963V21.656ZM67.7976 21.3121L88.2456 44.8321L89.7549 43.5199L69.3069 19.9999L67.7976 21.3121ZM88.2513 44.8386C88.9683 45.6491 89.6205 46.4569 90.2089 47.262L91.8236 46.082C91.196 45.2231 90.5043 44.3669 89.7493 43.5134L88.2513 44.8386ZM90.2354 47.2967C90.5556 47.697 90.8008 48.0025 90.9703 48.2123C91.0549 48.317 91.1219 48.3995 91.1705 48.4587C91.196 48.4897 91.2647 48.5747 91.3171 48.6271L92.7314 47.2129C92.7636 47.2452 92.7845 47.2715 92.7623 47.2451C92.7529 47.234 92.7379 47.2159 92.716 47.1893C92.6726 47.1365 92.6096 47.059 92.5262 46.9557C92.3597 46.7495 92.1169 46.447 91.7971 46.0473L90.2354 47.2967ZM93.0208 47.837C92.9608 47.117 92.9283 45.654 92.9283 43.408H90.9283C90.9283 45.642 90.9597 47.187 91.0277 48.003L93.0208 47.837ZM92.9283 43.408V20.848H90.9283V43.408H92.9283ZM91.9283 21.848H94.1363V19.848H91.9283V21.848ZM93.1363 20.848V52.192H95.1363V20.848H93.1363ZM94.1363 51.192H93.0803V53.192H94.1363V51.192ZM93.8341 51.535L73.0021 27.631L71.4944 28.945L92.3264 52.849L93.8341 51.535ZM73.0212 27.6535L70.3812 24.4375L68.8353 25.7065L71.4753 28.9225L73.0212 27.6535ZM68.6132 25.1715C68.6712 25.7514 68.7043 27.2002 68.7043 29.584H70.7043C70.7043 27.2318 70.6733 25.6726 70.6033 24.9725L68.6132 25.1715ZM68.7043 29.584V52H70.7043V29.584H68.7043ZM69.7043 51H67.4963V53H69.7043V51ZM104.693 52H103.693V53H104.693V52ZM104.693 20.656V19.656H103.693V20.656H104.693ZM105.749 20.656L106.503 19.9999L106.204 19.656H105.749V20.656ZM126.197 44.176L125.442 44.8321L125.448 44.8386L126.197 44.176ZM128.213 46.672L127.405 47.262L127.418 47.2796L127.432 47.2967L128.213 46.672ZM129.221 47.92L128.513 48.6271L130.444 50.5575L130.217 47.837L129.221 47.92ZM129.124 20.848V19.848H128.124V20.848H129.124ZM131.333 20.848H132.333V19.848H131.333V20.848ZM131.333 52.192V53.192H132.333V52.192H131.333ZM130.277 52.192L129.523 52.849L129.822 53.192H130.277V52.192ZM109.445 28.288L108.672 28.9225L108.681 28.9339L108.691 28.945L109.445 28.288ZM106.805 25.072L107.577 24.4375L105.481 21.8832L105.809 25.1715L106.805 25.072ZM106.901 52V53H107.901V52H106.901ZM105.693 52V20.656H103.693V52H105.693ZM104.693 21.656H105.749V19.656H104.693V21.656ZM104.994 21.3121L125.442 44.8321L126.951 43.5199L106.503 19.9999L104.994 21.3121ZM125.448 44.8386C126.165 45.6491 126.817 46.4569 127.405 47.262L129.02 46.082C128.392 45.2231 127.701 44.3669 126.946 43.5134L125.448 44.8386ZM127.432 47.2967C127.752 47.697 127.997 48.0025 128.167 48.2123C128.251 48.317 128.318 48.3995 128.367 48.4587C128.392 48.4897 128.461 48.5747 128.513 48.6271L129.928 47.2129C129.96 47.2452 129.981 47.2715 129.959 47.2451C129.949 47.234 129.934 47.2159 129.912 47.1893C129.869 47.1365 129.806 47.059 129.722 46.9557C129.556 46.7495 129.313 46.447 128.993 46.0473L127.432 47.2967ZM130.217 47.837C130.157 47.117 130.124 45.654 130.124 43.408H128.124C128.124 45.642 128.156 47.187 128.224 48.003L130.217 47.837ZM130.124 43.408V20.848H128.124V43.408H130.124ZM129.124 21.848H131.333V19.848H129.124V21.848ZM130.333 20.848V52.192H132.333V20.848H130.333ZM131.333 51.192H130.277V53.192H131.333V51.192ZM131.03 51.535L110.198 27.631L108.691 28.945L129.523 52.849L131.03 51.535ZM110.217 27.6535L107.577 24.4375L106.032 25.7065L108.672 28.9225L110.217 27.6535ZM105.809 25.1715C105.867 25.7514 105.901 27.2002 105.901 29.584H107.901C107.901 27.2318 107.87 25.6726 107.8 24.9725L105.809 25.1715ZM105.901 29.584V52H107.901V29.584H105.901ZM106.901 51H104.693V53H106.901V51ZM141.889 52H140.889V53H141.889V52ZM141.889 20.848V19.848H140.889V20.848H141.889ZM144.097 20.848H145.097V19.848H144.097V20.848ZM144.097 52V53H145.097V52H144.097ZM142.889 52V20.848H140.889V52H142.889ZM141.889 21.848H144.097V19.848H141.889V21.848ZM143.097 20.848V52H145.097V20.848H143.097ZM144.097 51H141.889V53H144.097V51ZM154.663 52H153.663V53H154.663V52ZM154.663 20.656V19.656H153.663V20.656H154.663ZM155.719 20.656L156.474 19.9999L156.175 19.656H155.719V20.656ZM176.167 44.176L175.412 44.8321L175.418 44.8386L176.167 44.176ZM178.183 46.672L177.376 47.262L177.389 47.2796L177.402 47.2967L178.183 46.672ZM179.191 47.92L178.484 48.6271L180.414 50.5575L180.188 47.837L179.191 47.92ZM179.095 20.848V19.848H178.095V20.848H179.095ZM181.303 20.848H182.303V19.848H181.303V20.848ZM181.303 52.192V53.192H182.303V52.192H181.303ZM180.247 52.192L179.493 52.849L179.792 53.192H180.247V52.192ZM159.415 28.288L158.642 28.9225L158.652 28.9339L158.661 28.945L159.415 28.288ZM156.775 25.072L157.548 24.4375L155.451 21.8832L155.78 25.1715L156.775 25.072ZM156.871 52V53H157.871V52H156.871ZM155.663 52V20.656H153.663V52H155.663ZM154.663 21.656H155.719V19.656H154.663V21.656ZM154.964 21.3121L175.412 44.8321L176.922 43.5199L156.474 19.9999L154.964 21.3121ZM175.418 44.8386C176.135 45.6491 176.787 46.4569 177.376 47.262L178.991 46.082C178.363 45.2231 177.671 44.3669 176.916 43.5134L175.418 44.8386ZM177.402 47.2967C177.723 47.697 177.968 48.0025 178.137 48.2123C178.222 48.317 178.289 48.3995 178.337 48.4587C178.363 48.4897 178.432 48.5747 178.484 48.6271L179.898 47.2129C179.93 47.2452 179.951 47.2715 179.929 47.2451C179.92 47.234 179.905 47.2159 179.883 47.1893C179.839 47.1365 179.777 47.059 179.693 46.9557C179.527 46.7495 179.284 46.447 178.964 46.0473L177.402 47.2967ZM180.188 47.837C180.128 47.117 180.095 45.654 180.095 43.408H178.095C178.095 45.642 178.127 47.187 178.195 48.003L180.188 47.837ZM180.095 43.408V20.848H178.095V43.408H180.095ZM179.095 21.848H181.303V19.848H179.095V21.848ZM180.303 20.848V52.192H182.303V20.848H180.303ZM181.303 51.192H180.247V53.192H181.303V51.192ZM181.001 51.535L160.169 27.631L158.661 28.945L179.493 52.849L181.001 51.535ZM160.188 27.6535L157.548 24.4375L156.002 25.7065L158.642 28.9225L160.188 27.6535ZM155.78 25.1715C155.838 25.7514 155.871 27.2002 155.871 29.584H157.871C157.871 27.2318 157.84 25.6726 157.77 24.9725L155.78 25.1715ZM155.871 29.584V52H157.871V29.584H155.871ZM156.871 51H154.663V53H156.871V51ZM195.891 26.416L195.146 25.7495L195.145 25.75L195.891 26.416ZM196.371 46.384L195.66 47.087L195.664 47.0911L196.371 46.384ZM214.611 49.168L215 50.0894L215.611 49.8315V49.168H214.611ZM214.611 36.352V35.352H213.611V36.352H214.611ZM216.819 36.352H217.819V35.352H216.819V36.352ZM216.819 50.176L217.343 51.0277L217.819 50.7348V50.176H216.819ZM194.643 47.824L193.94 48.5347L194.643 47.824ZM194.163 24.976L193.43 24.2961L193.426 24.3003L194.163 24.976ZM215.763 22.048L216.717 22.3491L217.016 21.4027L216.072 21.0967L215.763 22.048ZM215.187 23.872L214.893 24.8278L215.842 25.1197L216.141 24.1731L215.187 23.872ZM204.867 21.336C201.022 21.336 197.762 22.8239 195.146 25.7495L196.637 27.0825C198.885 24.5681 201.609 23.336 204.867 23.336V21.336ZM195.145 25.75C192.566 28.6388 191.291 32.1949 191.291 36.352H193.291C193.291 32.6371 194.417 29.5692 196.637 27.082L195.145 25.75ZM191.291 36.352C191.291 40.5461 192.752 44.1442 195.66 47.087L197.083 45.681C194.551 43.1198 193.291 40.0299 193.291 36.352H191.291ZM195.664 47.0911C198.562 49.9892 202.013 51.464 205.971 51.464V49.464C202.57 49.464 199.62 48.2188 197.078 45.6769L195.664 47.0911ZM205.971 51.464C209.739 51.464 212.773 51.0287 215 50.0894L214.223 48.2466C212.353 49.0353 209.627 49.464 205.971 49.464V51.464ZM215.611 49.168V36.352H213.611V49.168H215.611ZM214.611 37.352H216.819V35.352H214.611V37.352ZM215.819 36.352V50.176H217.819V36.352H215.819ZM216.295 49.3243C214.022 50.7233 210.698 51.48 206.211 51.48V53.48C210.877 53.48 214.625 52.7007 217.343 51.0277L216.295 49.3243ZM206.211 51.48C201.888 51.48 198.288 50.0244 195.347 47.1133L193.94 48.5347C197.271 51.8316 201.383 53.48 206.211 53.48V51.48ZM195.347 47.1133C192.405 44.2018 190.939 40.6518 190.939 36.4H188.939C188.939 41.1722 190.609 45.2382 193.94 48.5347L195.347 47.1133ZM190.939 36.4C190.939 32.0816 192.27 28.5219 194.901 25.6517L193.426 24.3003C190.425 27.5741 188.939 31.6304 188.939 36.4H190.939ZM194.897 25.6559C197.541 22.8034 200.932 21.368 205.155 21.368V19.368C200.419 19.368 196.482 21.0046 193.43 24.2961L194.897 25.6559ZM205.155 21.368C208.666 21.368 212.098 21.9114 215.455 22.9993L216.072 21.0967C212.517 19.9446 208.877 19.368 205.155 19.368V21.368ZM214.81 21.7469L214.234 23.5709L216.141 24.1731L216.717 22.3491L214.81 21.7469ZM215.481 22.9162C212.056 21.8623 208.517 21.336 204.867 21.336V23.336C208.322 23.336 211.662 23.8337 214.893 24.8278L215.481 22.9162ZM249.586 19.696H250.586V18.696H249.586V19.696ZM237.97 19.696H236.97V20.696H237.97V19.696ZM237.97 17.68V16.68H236.97V17.68H237.97ZM263.506 17.68H264.506V16.68H263.506V17.68ZM263.506 19.696V20.696H264.506V19.696H263.506ZM251.89 19.696V18.696H250.89V19.696H251.89ZM251.89 52V53H252.89V52H251.89ZM249.586 52H248.586V53H249.586V52ZM249.586 18.696H237.97V20.696H249.586V18.696ZM238.97 19.696V17.68H236.97V19.696H238.97ZM237.97 18.68H263.506V16.68H237.97V18.68ZM262.506 17.68V19.696H264.506V17.68H262.506ZM263.506 18.696H251.89V20.696H263.506V18.696ZM250.89 19.696V52H252.89V19.696H250.89ZM251.89 51H249.586V53H251.89V51ZM250.586 52V19.696H248.586V52H250.586ZM273.15 52H272.15V53H273.15V52ZM273.15 20.848V19.848H272.15V20.848H273.15ZM287.694 20.848H288.694V19.848H287.694V20.848ZM287.694 22.768V23.768H288.694V22.768H287.694ZM275.358 22.768V21.768H274.358V22.768H275.358ZM275.358 34.096H274.358V35.096H275.358V34.096ZM286.494 34.096H287.494V33.096H286.494V34.096ZM286.494 35.968V36.968H287.494V35.968H286.494ZM275.358 35.968V34.968H274.358V35.968H275.358ZM275.358 49.984H274.358V50.984H275.358V49.984ZM288.174 49.984H289.174V48.984H288.174V49.984ZM288.174 52V53H289.174V52H288.174ZM274.15 52V20.848H272.15V52H274.15ZM273.15 21.848H287.694V19.848H273.15V21.848ZM286.694 20.848V22.768H288.694V20.848H286.694ZM287.694 21.768H275.358V23.768H287.694V21.768ZM274.358 22.768V34.096H276.358V22.768H274.358ZM275.358 35.096H286.494V33.096H275.358V35.096ZM285.494 34.096V35.968H287.494V34.096H285.494ZM286.494 34.968H275.358V36.968H286.494V34.968ZM274.358 35.968V49.984H276.358V35.968H274.358ZM275.358 50.984H288.174V48.984H275.358V50.984ZM287.174 49.984V52H289.174V49.984H287.174ZM288.174 51H273.15V53H288.174V51ZM302.865 41.2V40.2H302.197L301.941 40.818L302.865 41.2ZM298.401 52V53H299.07L299.326 52.382L298.401 52ZM296.145 52L295.222 51.6155L294.646 53H296.145V52ZM309.201 20.656V19.656H308.535L308.278 20.2715L309.201 20.656ZM310.497 20.656L311.419 20.2691L311.162 19.656H310.497V20.656ZM323.649 52V53H325.153L324.571 51.6131L323.649 52ZM321.201 52L320.279 52.3855L320.535 53H321.201V52ZM316.689 41.2L317.612 40.8145L317.355 40.2H316.689V41.2ZM309.729 24.208L310.673 23.8776L309.706 21.115L308.781 23.8918L309.729 24.208ZM308.433 27.808L309.356 28.1926L309.359 28.186L309.362 28.1794L308.433 27.808ZM303.633 39.328L302.71 38.9434L302.133 40.328H303.633V39.328ZM315.921 39.328V40.328H317.418L316.845 38.9453L315.921 39.328ZM311.169 27.856L310.244 28.2359L310.245 28.2387L311.169 27.856ZM301.941 40.818L297.477 51.618L299.326 52.382L303.79 41.582L301.941 40.818ZM298.401 51H296.145V53H298.401V51ZM297.068 52.3845L310.124 21.0405L308.278 20.2715L295.222 51.6155L297.068 52.3845ZM309.201 21.656H310.497V19.656H309.201V21.656ZM309.575 21.0429L322.727 52.3869L324.571 51.6131L311.419 20.2691L309.575 21.0429ZM323.649 51H321.201V53H323.649V51ZM322.124 51.6145L317.612 40.8145L315.767 41.5855L320.279 52.3855L322.124 51.6145ZM316.689 40.2H302.865V42.2H316.689V40.2ZM308.781 23.8918C308.304 25.3209 307.879 26.501 307.505 27.4366L309.362 28.1794C309.756 27.195 310.194 25.9751 310.678 24.5242L308.781 23.8918ZM307.51 27.4234L302.71 38.9434L304.556 39.7126L309.356 28.1926L307.51 27.4234ZM303.633 40.328H315.921V38.328H303.633V40.328ZM316.845 38.9453L312.093 27.4733L310.245 28.2387L314.997 39.7107L316.845 38.9453ZM312.094 27.4761C311.357 25.6809 310.887 24.4888 310.673 23.8776L308.786 24.5383C309.02 25.2072 309.51 26.4471 310.244 28.2359L312.094 27.4761ZM348.738 50.368V51.368H349.376L349.645 50.7897L348.738 50.368ZM347.442 50.368L346.517 50.7487L346.772 51.368H347.442V50.368ZM338.37 28.336L339.295 27.9552L339.289 27.9425L339.284 27.9299L338.37 28.336ZM337.218 25.312L338.167 24.9958L336.218 25.312H337.218ZM337.122 25.84L336.141 25.6439L336.132 25.6918L336.127 25.7405L337.122 25.84ZM336.978 27.136L337.97 27.26L337.971 27.2528L336.978 27.136ZM336.786 28.432L335.802 28.2531L335.8 28.267L335.797 28.281L336.786 28.432ZM333.186 52V53H334.045L334.175 52.151L333.186 52ZM331.026 52L330.039 51.8398L329.851 53H331.026V52ZM336.114 20.656V19.656H335.263L335.127 20.4958L336.114 20.656ZM337.41 20.656L338.331 20.2674L338.074 19.656H337.41V20.656ZM347.106 43.648L348.034 43.2766L348.031 43.268L348.027 43.2594L347.106 43.648ZM348.258 46.672H347.258L349.207 46.9882L348.258 46.672ZM349.554 43.696L350.453 44.1344L350.456 44.1275L350.459 44.1204L349.554 43.696ZM360.354 20.656V19.656H359.718L359.449 20.2316L360.354 20.656ZM361.65 20.656L362.639 20.5061L362.51 19.656H361.65V20.656ZM366.402 52V53H367.565L367.391 51.8501L366.402 52ZM364.098 52L363.108 52.1425L363.232 53H364.098V52ZM360.69 28.336L359.7 28.4774L359.7 28.4785L360.69 28.336ZM360.354 25.216H361.354L359.438 24.8137L360.354 25.216ZM358.962 28.384L359.869 28.8057L359.873 28.796L359.878 28.7863L358.962 28.384ZM348.738 49.368H347.442V51.368H348.738V49.368ZM348.367 49.9873L339.295 27.9552L337.445 28.7167L346.517 50.7487L348.367 49.9873ZM339.284 27.9299C338.916 27.1021 338.543 26.1253 338.167 24.9958L336.269 25.6282C336.661 26.8027 337.056 27.8419 337.456 28.7421L339.284 27.9299ZM336.218 25.312C336.218 25.2769 336.22 25.2503 336.221 25.2399C336.222 25.2272 336.223 25.2179 336.223 25.2139C336.224 25.2062 336.225 25.2042 336.224 25.2109C336.222 25.2239 336.217 25.2488 336.21 25.2891C336.196 25.3685 336.173 25.4858 336.141 25.6439L338.103 26.0361C338.135 25.8742 338.16 25.7435 338.178 25.6469C338.187 25.5992 338.194 25.5541 338.2 25.5151C338.202 25.507 338.218 25.4109 338.218 25.312H336.218ZM336.127 25.7405C336.096 26.0521 336.049 26.4775 335.985 27.0192L337.971 27.2528C338.035 26.7065 338.084 26.2679 338.117 25.9395L336.127 25.7405ZM335.986 27.012C335.923 27.5129 335.862 27.9253 335.802 28.2531L337.77 28.6109C337.838 28.2347 337.905 27.7831 337.97 27.26L335.986 27.012ZM335.797 28.281L332.197 51.849L334.175 52.151L337.775 28.583L335.797 28.281ZM333.186 51H331.026V53H333.186V51ZM332.013 52.1602L337.101 20.8162L335.127 20.4958L330.039 51.8398L332.013 52.1602ZM336.114 21.656H337.41V19.656H336.114V21.656ZM336.489 21.0446L346.185 44.0366L348.027 43.2594L338.331 20.2674L336.489 21.0446ZM346.178 44.0194C346.561 44.978 346.847 45.7039 347.036 46.2C347.13 46.4491 347.198 46.6334 347.242 46.7575C347.263 46.8207 347.276 46.8587 347.281 46.8773C347.284 46.8873 347.282 46.8817 347.279 46.8661C347.277 46.8582 347.273 46.8401 347.269 46.8153C347.266 46.7958 347.258 46.7425 347.258 46.672H349.258C349.258 46.5441 349.233 46.4393 349.228 46.4205C349.219 46.3787 349.208 46.3397 349.199 46.3092C349.18 46.2468 349.157 46.1753 349.13 46.1005C349.078 45.9486 349.002 45.7429 348.904 45.488C348.709 44.9761 348.419 44.238 348.034 43.2766L346.178 44.0194ZM349.207 46.9882C349.409 46.382 349.816 45.4391 350.453 44.1344L348.655 43.2576C348.012 44.5769 347.555 45.618 347.309 46.3558L349.207 46.9882ZM350.459 44.1204L361.259 21.0804L359.449 20.2316L348.649 43.2716L350.459 44.1204ZM360.354 21.656H361.65V19.656H360.354V21.656ZM360.661 20.8059L365.413 52.1499L367.391 51.8501L362.639 20.5061L360.661 20.8059ZM366.402 51H364.098V53H366.402V51ZM365.088 51.8575L361.68 28.1935L359.7 28.4785L363.108 52.1425L365.088 51.8575ZM361.68 28.1946C361.454 26.6131 361.354 25.6445 361.354 25.216H359.354C359.354 25.8115 359.478 26.9229 359.7 28.4774L361.68 28.1946ZM359.438 24.8137L358.046 27.9817L359.878 28.7863L361.27 25.6183L359.438 24.8137ZM358.055 27.9623L347.831 49.9463L349.645 50.7897L359.869 28.8057L358.055 27.9623Z" fill="white" mask="url(#path-5-outside-1_112_2)"/>
</svg>
