<svg width="35" height="35" viewBox="0 0 35 35" fill="none" xmlns="http://www.w3.org/2000/svg">
<path d="M26.25 14.5833C26.2545 11.9465 25.3656 9.38585 23.7283 7.31893C22.091 5.252 19.8017 3.80071 17.2338 3.20165C14.6659 2.6026 11.9708 2.89112 9.58785 4.02017C7.20493 5.14923 5.27478 7.05223 4.11207 9.41891C2.94936 11.7856 2.62268 14.4763 3.18529 17.0525C3.7479 19.6286 5.16661 21.9382 7.21012 23.6047C9.25364 25.2711 11.8014 26.1962 14.4381 26.229C17.0747 26.2618 19.6448 25.4005 21.7291 23.7854L31.0625 33.1188L33.1187 31.0625L23.7854 21.7292C25.3772 19.6867 26.2442 17.1728 26.25 14.5833ZM14.5833 23.3333C12.8527 23.3333 11.161 22.8202 9.72205 21.8587C8.28312 20.8972 7.16161 19.5307 6.49934 17.9318C5.83708 16.333 5.6638 14.5736 6.00142 12.8763C6.33904 11.179 7.17239 9.61987 8.3961 8.39616C9.61981 7.17245 11.1789 6.33909 12.8762 6.00147C14.5736 5.66385 16.3329 5.83713 17.9318 6.49939C19.5306 7.16166 20.8972 8.28317 21.8586 9.7221C22.8201 11.161 23.3333 12.8528 23.3333 14.5833C23.3333 16.904 22.4114 19.1296 20.7705 20.7705C19.1295 22.4115 16.9039 23.3333 14.5833 23.3333Z" fill="white"/>
</svg>
