<svg width="50" height="50" viewBox="0 0 50 50" fill="none" xmlns="http://www.w3.org/2000/svg">
<path d="M3.01764 32.8853V33.9221V46.9373H11.9156V32.8853H3.01764Z" fill="white"/>
<path d="M14.7939 29.202V30.2389V46.9373H23.6764V29.202H14.7939ZM16.8675 31.2913H21.5873V44.8635H16.8675V31.2913Z" fill="white"/>
<path d="M26.3535 24.5901V25.6424V46.9371H35.2514V24.5901H26.3535Z" fill="white"/>
<path d="M38.0214 20.9068V21.9592V46.9371H46.9193V20.9068H38.0214ZM40.1104 22.9961H44.8302V44.8633H40.1104V22.9961Z" fill="white"/>
<path d="M42.8971 3.06296C40.6554 3.06296 38.8118 4.9065 38.8118 7.14824C38.8118 7.54632 38.8867 7.92676 38.9949 8.29164L38.6572 8.49509L33.4081 11.6364L33.1559 11.7869C32.4097 11.0035 31.3627 10.5092 30.2058 10.5092C28.5215 10.5092 27.0715 11.5471 26.4542 13.0158L20.6437 12.0066L20.2815 11.9415C19.9557 10.0193 18.2771 8.53985 16.2654 8.53985C14.0238 8.53985 12.1801 10.3712 12.1801 12.6129C12.1801 13.5953 12.5458 14.4889 13.1323 15.1967L8.56683 21.0195C8.15346 20.8772 7.71582 20.7835 7.25661 20.7835C5.01497 20.7835 3.17133 22.627 3.17133 24.8688C3.17133 27.1106 5.01497 28.9378 7.25661 28.9378C9.49825 28.9378 11.3419 27.1106 11.3419 24.8688C11.3419 23.8385 10.9428 22.901 10.3043 22.1792L14.825 16.4175C15.2744 16.5893 15.7585 16.6982 16.2654 16.6982C18.0123 16.6982 19.5028 15.572 20.0821 14.0167L20.2734 14.0493L26.1043 15.0747L26.1856 15.0869C26.4327 17.0971 28.1329 18.6798 30.2058 18.6798C32.4475 18.6798 34.2911 16.8364 34.2911 14.5945C34.2911 14.2576 34.2393 13.932 34.1609 13.618L34.4783 13.4308L39.7232 10.2895L40.0691 10.082C40.8055 10.7924 41.803 11.2335 42.8971 11.2335C45.1387 11.2335 46.9824 9.39007 46.9824 7.14824C46.9824 4.9065 45.1387 3.06296 42.8971 3.06296ZM30.2058 12.5967C31.3216 12.5967 32.2037 13.4787 32.2037 14.5945C32.2037 15.7104 31.3216 16.5883 30.2058 16.5883C29.0901 16.5883 28.212 15.7104 28.212 14.5945C28.212 13.4787 29.0901 12.5967 30.2058 12.5967ZM7.25661 22.8709C8.37237 22.8709 9.2545 23.753 9.2545 24.8688C9.2545 25.9846 8.37237 26.8667 7.25661 26.8667C6.14085 26.8667 5.2628 25.9846 5.2628 24.8688C5.2628 23.753 6.14085 22.8709 7.25661 22.8709Z" fill="white"/>
</svg>
