<svg width="50" height="50" viewBox="0 0 50 50" fill="none" xmlns="http://www.w3.org/2000/svg">
<path d="M8.33332 31.25C8.33332 38.1604 13.9229 43.75 20.8333 43.75L19.0479 40.1792M41.6666 18.75C41.6666 11.8396 36.0771 6.24999 29.1666 6.24999L30.9521 9.82082M7.89373 18.8271C6.41873 19.625 2.55623 21.2542 4.90832 23.2917C6.05832 24.2875 7.33957 25 8.94998 25H18.1354C19.7437 25 21.025 24.2875 22.175 23.2917C24.5292 21.2542 20.6646 19.625 19.1896 18.8271C15.7333 16.9562 11.35 16.9562 7.89373 18.8271ZM18.2292 8.90207C18.2324 9.52073 18.1138 10.134 17.8799 10.7067C17.6461 11.2795 17.3017 11.8006 16.8663 12.2402C16.431 12.6798 15.9133 13.0292 15.3428 13.2686C14.7724 13.508 14.1603 13.6327 13.5417 13.6354C12.923 13.6327 12.3109 13.508 11.7405 13.2686C11.17 13.0292 10.6523 12.6798 10.217 12.2402C9.78163 11.8006 9.43721 11.2795 9.20337 10.7067C8.96953 10.134 8.85086 9.52073 8.85415 8.90207C8.85059 8.28324 8.96905 7.66977 9.20277 7.09676C9.43648 6.52375 9.78087 6.00243 10.2162 5.56262C10.6516 5.12281 11.1694 4.77315 11.74 4.53361C12.3106 4.29408 12.9228 4.16938 13.5417 4.16666C14.1605 4.16938 14.7727 4.29408 15.3433 4.53361C15.9139 4.77315 16.4317 5.12281 16.8671 5.56262C17.3024 6.00243 17.6468 6.52375 17.8805 7.09676C18.1143 7.66977 18.2327 8.28324 18.2292 8.90207ZM30.8104 39.6604C29.3354 40.4583 25.4729 42.0875 27.825 44.125C28.975 45.1208 30.2562 45.8333 31.8666 45.8333H41.0521C42.6604 45.8333 43.9416 45.1208 45.0916 44.125C47.4458 42.0875 43.5812 40.4583 42.1062 39.6604C38.65 37.7896 34.2666 37.7896 30.8104 39.6604ZM41.1458 29.7354C41.1494 30.3542 41.0309 30.9677 40.7972 31.5407C40.5635 32.1137 40.2191 32.635 39.7837 33.0749C39.3484 33.5147 38.8306 33.8643 38.26 34.1039C37.6894 34.3434 37.0772 34.4681 36.4583 34.4708C35.8395 34.4681 35.2272 34.3434 34.6566 34.1039C34.086 33.8643 33.5682 33.5147 33.1329 33.0749C32.6975 32.635 32.3531 32.1137 32.1194 31.5407C31.8857 30.9677 31.7673 30.3542 31.7708 29.7354C31.7673 29.1166 31.8857 28.5031 32.1194 27.9301C32.3531 27.3571 32.6975 26.8358 33.1329 26.396C33.5682 25.9561 34.086 25.6065 34.6566 25.3669C35.2272 25.1274 35.8395 25.0027 36.4583 25C37.0772 25.0027 37.6894 25.1274 38.26 25.3669C38.8306 25.6065 39.3484 25.9561 39.7837 26.396C40.2191 26.8358 40.5635 27.3571 40.7972 27.9301C41.0309 28.5031 41.1494 29.1166 41.1458 29.7354Z" stroke="white" stroke-width="3.125" stroke-linecap="round" stroke-linejoin="round"/>
</svg>
