<svg width="30" height="30" viewBox="0 0 30 30" fill="none" xmlns="http://www.w3.org/2000/svg">
<path d="M24.9999 4.9998V3H23.0001V4.9998H21V8.4999H27V4.9998H24.9999Z" fill="white"/>
<path d="M18.9999 9.99989C16.791 9.99989 15 11.7909 15 13.9998V24.9996C15 26.1042 15.8955 27 17.0001 27H24.999C26.1045 27 27 26.1042 27 24.9996V9.99989H18.9999ZM21.375 24H20.3064L21.0564 21.9996H19.5L20.625 18.9996H21.6936L21 21H22.5L21.375 24ZM22.2501 14.4999H19.7499C19.3359 14.4999 18.9999 14.1639 18.9999 13.7499C18.9999 13.3359 19.3359 12.9999 19.7499 12.9999H22.2501C22.6641 12.9999 23.0001 13.3359 23.0001 13.7499C23.0001 14.1639 22.6641 14.4999 22.2501 14.4999Z" fill="white"/>
<path d="M13.1121 4.6386C12.0381 3.6249 10.5939 3 9 3C5.6859 3 3 5.6853 3 9C3 11.2635 4.254 13.2321 6.1044 14.2539C4.6185 15.8205 4.6356 18.2907 6.1719 19.8282C6.4236 20.0802 6.7062 20.2752 7.0005 20.4465V21C6.9987 24.3135 9.6852 27 13.0005 27V24.999C10.7943 25.0008 8.9994 23.2038 8.9994 21C10.0236 21 11.0472 20.6091 11.8287 19.8282C12.6099 19.0467 13.0002 18.0234 13.0002 16.9998L10.9998 17.001C10.9998 17.5341 10.7925 18.0357 10.4139 18.4131C9.6345 19.1931 8.3667 19.1943 7.5861 18.4137C6.8055 17.6337 6.807 16.3641 7.5861 15.5859L8.2272 14.9448C8.4804 14.9772 8.7375 15 9 15H10.9998V12.9999H9C6.7944 12.9999 4.9998 11.205 4.9998 9C4.9998 6.7947 6.7944 4.9998 9 4.9998C11.2056 4.9998 13.0002 6.7947 13.0002 9H15C15 8.0115 14.7567 7.0818 14.3337 6.2595C15.4122 5.8182 16.7382 6.0156 17.586 6.8643L18.9999 5.4492C17.4024 3.8526 14.994 3.5976 13.1121 4.6386Z" fill="white"/>
</svg>
